<svg xmlns="http://www.w3.org/2000/svg" xmlns:xlink="http://www.w3.org/1999/xlink" width="500" zoomAndPan="magnify" viewBox="0 0 375 374.999991" height="500" preserveAspectRatio="xMidYMid meet" version="1.0"><defs><clipPath id="6ebc3a4496"><path d="M 73 50.109375 L 301.703125 50.109375 L 301.703125 324.609375 L 73 324.609375 Z M 73 50.109375 " clip-rule="nonzero"/></clipPath><clipPath id="2c1c0f4ffa"><path d="M 137 297 L 238 297 L 238 324.609375 L 137 324.609375 Z M 137 297 " clip-rule="nonzero"/></clipPath><clipPath id="93415cd8ed"><path d="M 73 50.109375 L 301.703125 50.109375 L 301.703125 324.609375 L 73 324.609375 Z M 73 50.109375 " clip-rule="nonzero"/></clipPath><clipPath id="124a6b74ab"><path d="M 137 297 L 238 297 L 238 324.609375 L 137 324.609375 Z M 137 297 " clip-rule="nonzero"/></clipPath></defs><path fill="#276d5a" d="M 224.132812 146.28125 L 150.859375 146.28125 C 130.664062 146.28125 114.226562 162.71875 114.226562 182.914062 C 114.226562 203.113281 130.664062 219.550781 150.859375 219.550781 L 224.132812 219.550781 C 244.328125 219.550781 260.769531 203.113281 260.769531 182.914062 C 260.769531 162.71875 244.328125 146.28125 224.132812 146.28125 Z M 150.859375 196.65625 C 143.304688 196.65625 137.121094 190.472656 137.121094 182.914062 C 137.121094 175.359375 143.304688 169.175781 150.859375 169.175781 C 158.417969 169.175781 164.597656 175.359375 164.597656 182.914062 C 164.597656 190.472656 158.417969 196.65625 150.859375 196.65625 Z M 224.132812 196.65625 C 216.578125 196.65625 210.394531 190.472656 210.394531 182.914062 C 210.394531 175.359375 216.578125 169.175781 224.132812 169.175781 C 231.6875 169.175781 237.871094 175.359375 237.871094 182.914062 C 237.871094 190.472656 231.6875 196.65625 224.132812 196.65625 Z M 224.132812 196.65625 " fill-opacity="1" fill-rule="nonzero"/><g clip-path="url(#6ebc3a4496)"><path fill="#276d5a" d="M 288.246094 160.019531 L 283.527344 160.019531 C 282.476562 143.714844 268.597656 129.886719 248.3125 125.214844 C 237.550781 122.789062 225.917969 121 213.78125 119.949219 C 212.5 115.6875 210.164062 111.796875 206.914062 108.5 C 202.792969 104.421875 197.664062 101.8125 192.074219 100.898438 L 192.074219 76.761719 C 197.386719 74.886719 201.234375 69.800781 201.234375 63.847656 C 201.234375 56.292969 195.050781 50.109375 187.496094 50.109375 C 179.941406 50.109375 173.757812 56.292969 173.757812 63.847656 C 173.757812 69.800781 177.605469 74.886719 182.917969 76.761719 L 182.917969 100.898438 C 172.660156 102.589844 164.234375 109.917969 161.210938 119.949219 C 149.074219 121 137.441406 122.789062 126.679688 125.214844 C 106.394531 129.886719 92.519531 143.714844 91.464844 160.019531 L 86.746094 160.019531 C 79.191406 160.019531 73.007812 166.199219 73.007812 173.757812 L 73.007812 192.074219 C 73.007812 199.632812 79.191406 205.8125 86.746094 205.8125 L 91.464844 205.8125 C 92.519531 222.117188 106.394531 235.945312 126.679688 240.617188 C 134.328125 242.359375 142.433594 243.777344 150.859375 244.785156 L 150.859375 260.765625 L 132.542969 260.765625 C 117.382812 260.765625 105.066406 273.085938 105.066406 288.246094 L 105.066406 320.300781 C 105.066406 322.820312 107.125 324.878906 109.644531 324.878906 C 112.164062 324.878906 114.226562 322.820312 114.226562 320.300781 L 114.226562 288.246094 C 114.226562 278.125 122.421875 269.925781 132.542969 269.925781 L 242.449219 269.925781 C 252.570312 269.925781 260.769531 278.125 260.769531 288.246094 L 260.769531 320.300781 C 260.769531 322.820312 262.828125 324.878906 265.347656 324.878906 C 267.867188 324.878906 269.925781 322.820312 269.925781 320.300781 L 269.925781 288.246094 C 269.925781 273.085938 257.609375 260.765625 242.449219 260.765625 L 224.132812 260.765625 L 224.132812 244.785156 C 232.558594 243.777344 240.664062 242.359375 248.3125 240.617188 C 268.597656 235.945312 282.476562 222.117188 283.527344 205.8125 L 288.246094 205.8125 C 295.800781 205.8125 301.984375 199.632812 301.984375 192.074219 L 301.984375 173.757812 C 301.984375 166.199219 295.800781 160.019531 288.246094 160.019531 Z M 187.496094 59.269531 C 190.015625 59.269531 192.074219 61.332031 192.074219 63.847656 C 192.074219 66.367188 190.015625 68.429688 187.496094 68.429688 C 184.976562 68.429688 182.917969 66.367188 182.917969 63.847656 C 182.917969 61.332031 184.976562 59.269531 187.496094 59.269531 Z M 274.507812 164.597656 L 274.507812 203.707031 C 274.507812 216.347656 262.875 227.839844 246.25 231.6875 C 228.574219 235.71875 208.242188 237.871094 187.496094 237.871094 C 166.75 237.871094 146.417969 235.71875 128.742188 231.6875 C 112.117188 227.839844 100.484375 216.347656 100.484375 203.707031 L 100.484375 162.125 C 100.484375 149.484375 112.117188 137.992188 128.742188 134.144531 C 146.417969 130.113281 166.75 127.960938 187.496094 127.960938 C 208.242188 127.960938 228.574219 130.113281 246.25 134.144531 C 262.875 137.992188 274.507812 149.484375 274.507812 162.125 Z M 274.507812 164.597656 " fill-opacity="1" fill-rule="nonzero"/></g><g clip-path="url(#2c1c0f4ffa)"><path fill="#276d5a" d="M 224.132812 297.402344 L 150.859375 297.402344 C 143.304688 297.402344 137.121094 303.585938 137.121094 311.140625 L 137.121094 320.300781 C 137.121094 322.820312 139.183594 324.878906 141.703125 324.878906 L 233.292969 324.878906 C 235.808594 324.878906 237.871094 322.820312 237.871094 320.300781 L 237.871094 311.140625 C 237.871094 303.585938 231.6875 297.402344 224.132812 297.402344 Z M 224.132812 297.402344 " fill-opacity="1" fill-rule="nonzero"/></g><path fill="#276d5a" d="M 192.074219 283.664062 C 192.074219 283.964844 192.046875 284.261719 191.988281 284.558594 C 191.929688 284.851562 191.84375 285.140625 191.726562 285.417969 C 191.613281 285.695312 191.472656 285.957031 191.304688 286.207031 C 191.136719 286.457031 190.949219 286.691406 190.734375 286.902344 C 190.523438 287.117188 190.289062 287.304688 190.039062 287.472656 C 189.789062 287.640625 189.527344 287.78125 189.25 287.894531 C 188.972656 288.011719 188.683594 288.097656 188.390625 288.15625 C 188.09375 288.214844 187.796875 288.246094 187.496094 288.246094 C 187.195312 288.246094 186.898438 288.214844 186.601562 288.15625 C 186.308594 288.097656 186.023438 288.011719 185.742188 287.894531 C 185.464844 287.78125 185.203125 287.640625 184.953125 287.472656 C 184.703125 287.304688 184.472656 287.117188 184.257812 286.902344 C 184.046875 286.691406 183.855469 286.457031 183.6875 286.207031 C 183.523438 285.957031 183.378906 285.695312 183.265625 285.417969 C 183.152344 285.140625 183.0625 284.851562 183.003906 284.558594 C 182.945312 284.261719 182.917969 283.964844 182.917969 283.664062 C 182.917969 283.363281 182.945312 283.066406 183.003906 282.769531 C 183.0625 282.476562 183.152344 282.191406 183.265625 281.914062 C 183.378906 281.632812 183.523438 281.371094 183.6875 281.121094 C 183.855469 280.871094 184.046875 280.640625 184.257812 280.425781 C 184.472656 280.214844 184.703125 280.023438 184.953125 279.855469 C 185.203125 279.691406 185.464844 279.550781 185.742188 279.433594 C 186.023438 279.320312 186.308594 279.230469 186.601562 279.171875 C 186.898438 279.113281 187.195312 279.085938 187.496094 279.085938 C 187.796875 279.085938 188.09375 279.113281 188.390625 279.171875 C 188.683594 279.230469 188.972656 279.320312 189.25 279.433594 C 189.527344 279.550781 189.789062 279.691406 190.039062 279.855469 C 190.289062 280.023438 190.523438 280.214844 190.734375 280.425781 C 190.949219 280.640625 191.136719 280.871094 191.304688 281.121094 C 191.472656 281.371094 191.613281 281.632812 191.726562 281.914062 C 191.84375 282.191406 191.929688 282.476562 191.988281 282.769531 C 192.046875 283.066406 192.074219 283.363281 192.074219 283.664062 Z M 192.074219 283.664062 " fill-opacity="1" fill-rule="nonzero"/><path fill="#276d5a" d="M 169.179688 283.664062 C 169.179688 283.964844 169.148438 284.261719 169.089844 284.558594 C 169.03125 284.851562 168.945312 285.140625 168.828125 285.417969 C 168.714844 285.695312 168.574219 285.957031 168.40625 286.207031 C 168.238281 286.457031 168.050781 286.691406 167.835938 286.902344 C 167.625 287.117188 167.394531 287.304688 167.144531 287.472656 C 166.894531 287.640625 166.628906 287.78125 166.351562 287.894531 C 166.074219 288.011719 165.789062 288.097656 165.492188 288.15625 C 165.199219 288.214844 164.898438 288.246094 164.597656 288.246094 C 164.296875 288.246094 164 288.214844 163.707031 288.15625 C 163.410156 288.097656 163.125 288.011719 162.847656 287.894531 C 162.570312 287.78125 162.304688 287.640625 162.054688 287.472656 C 161.804688 287.304688 161.574219 287.117188 161.359375 286.902344 C 161.148438 286.691406 160.957031 286.457031 160.792969 286.207031 C 160.625 285.957031 160.484375 285.695312 160.367188 285.417969 C 160.253906 285.140625 160.167969 284.851562 160.109375 284.558594 C 160.050781 284.261719 160.019531 283.964844 160.019531 283.664062 C 160.019531 283.363281 160.050781 283.066406 160.109375 282.769531 C 160.167969 282.476562 160.253906 282.191406 160.367188 281.914062 C 160.484375 281.632812 160.625 281.371094 160.792969 281.121094 C 160.957031 280.871094 161.148438 280.640625 161.359375 280.425781 C 161.574219 280.214844 161.804688 280.023438 162.054688 279.855469 C 162.304688 279.691406 162.570312 279.550781 162.847656 279.433594 C 163.125 279.320312 163.410156 279.230469 163.707031 279.171875 C 164 279.113281 164.296875 279.085938 164.597656 279.085938 C 164.898438 279.085938 165.199219 279.113281 165.492188 279.171875 C 165.789062 279.230469 166.074219 279.320312 166.351562 279.433594 C 166.628906 279.550781 166.894531 279.691406 167.144531 279.855469 C 167.394531 280.023438 167.625 280.214844 167.835938 280.425781 C 168.050781 280.640625 168.238281 280.871094 168.40625 281.121094 C 168.574219 281.371094 168.714844 281.632812 168.828125 281.914062 C 168.945312 282.191406 169.03125 282.476562 169.089844 282.769531 C 169.148438 283.066406 169.179688 283.363281 169.179688 283.664062 Z M 169.179688 283.664062 " fill-opacity="1" fill-rule="nonzero"/><path fill="#276d5a" d="M 214.972656 283.664062 C 214.972656 283.964844 214.945312 284.261719 214.886719 284.558594 C 214.828125 284.851562 214.738281 285.140625 214.625 285.417969 C 214.511719 285.695312 214.367188 285.957031 214.203125 286.207031 C 214.035156 286.457031 213.84375 286.691406 213.632812 286.902344 C 213.417969 287.117188 213.1875 287.304688 212.9375 287.472656 C 212.6875 287.640625 212.425781 287.78125 212.144531 287.894531 C 211.867188 288.011719 211.582031 288.097656 211.289062 288.15625 C 210.992188 288.214844 210.695312 288.246094 210.394531 288.246094 C 210.09375 288.246094 209.796875 288.214844 209.5 288.15625 C 209.207031 288.097656 208.917969 288.011719 208.640625 287.894531 C 208.363281 287.78125 208.101562 287.640625 207.851562 287.472656 C 207.601562 287.304688 207.367188 287.117188 207.15625 286.902344 C 206.941406 286.691406 206.753906 286.457031 206.585938 286.207031 C 206.417969 285.957031 206.277344 285.695312 206.164062 285.417969 C 206.046875 285.140625 205.960938 284.851562 205.902344 284.558594 C 205.84375 284.261719 205.816406 283.964844 205.816406 283.664062 C 205.816406 283.363281 205.84375 283.066406 205.902344 282.769531 C 205.960938 282.476562 206.046875 282.191406 206.164062 281.914062 C 206.277344 281.632812 206.417969 281.371094 206.585938 281.121094 C 206.753906 280.871094 206.941406 280.640625 207.15625 280.425781 C 207.367188 280.214844 207.601562 280.023438 207.851562 279.855469 C 208.101562 279.691406 208.363281 279.550781 208.640625 279.433594 C 208.917969 279.320312 209.207031 279.230469 209.5 279.171875 C 209.796875 279.113281 210.09375 279.085938 210.394531 279.085938 C 210.695312 279.085938 210.992188 279.113281 211.289062 279.171875 C 211.582031 279.230469 211.867188 279.320312 212.144531 279.433594 C 212.425781 279.550781 212.6875 279.691406 212.9375 279.855469 C 213.1875 280.023438 213.417969 280.214844 213.632812 280.425781 C 213.84375 280.640625 214.035156 280.871094 214.203125 281.121094 C 214.367188 281.371094 214.511719 281.632812 214.625 281.914062 C 214.738281 282.191406 214.828125 282.476562 214.886719 282.769531 C 214.945312 283.066406 214.972656 283.363281 214.972656 283.664062 Z M 214.972656 283.664062 " fill-opacity="1" fill-rule="nonzero"/><path fill="#276d5a" d="M 224.132812 146.28125 L 150.859375 146.28125 C 130.664062 146.28125 114.226562 162.71875 114.226562 182.914062 C 114.226562 203.113281 130.664062 219.550781 150.859375 219.550781 L 224.132812 219.550781 C 244.328125 219.550781 260.769531 203.113281 260.769531 182.914062 C 260.769531 162.71875 244.328125 146.28125 224.132812 146.28125 Z M 150.859375 196.65625 C 143.304688 196.65625 137.121094 190.472656 137.121094 182.914062 C 137.121094 175.359375 143.304688 169.175781 150.859375 169.175781 C 158.417969 169.175781 164.597656 175.359375 164.597656 182.914062 C 164.597656 190.472656 158.417969 196.65625 150.859375 196.65625 Z M 224.132812 196.65625 C 216.578125 196.65625 210.394531 190.472656 210.394531 182.914062 C 210.394531 175.359375 216.578125 169.175781 224.132812 169.175781 C 231.6875 169.175781 237.871094 175.359375 237.871094 182.914062 C 237.871094 190.472656 231.6875 196.65625 224.132812 196.65625 Z M 224.132812 196.65625 " fill-opacity="1" fill-rule="nonzero"/><g clip-path="url(#93415cd8ed)"><path fill="#276d5a" d="M 288.246094 160.019531 L 283.527344 160.019531 C 282.476562 143.714844 268.597656 129.886719 248.3125 125.214844 C 237.550781 122.789062 225.917969 121 213.78125 119.949219 C 212.5 115.6875 210.164062 111.796875 206.914062 108.5 C 202.792969 104.421875 197.664062 101.8125 192.074219 100.898438 L 192.074219 76.761719 C 197.386719 74.886719 201.234375 69.800781 201.234375 63.847656 C 201.234375 56.292969 195.050781 50.109375 187.496094 50.109375 C 179.941406 50.109375 173.757812 56.292969 173.757812 63.847656 C 173.757812 69.800781 177.605469 74.886719 182.917969 76.761719 L 182.917969 100.898438 C 172.660156 102.589844 164.234375 109.917969 161.210938 119.949219 C 149.074219 121 137.441406 122.789062 126.679688 125.214844 C 106.394531 129.886719 92.519531 143.714844 91.464844 160.019531 L 86.746094 160.019531 C 79.191406 160.019531 73.007812 166.199219 73.007812 173.757812 L 73.007812 192.074219 C 73.007812 199.632812 79.191406 205.8125 86.746094 205.8125 L 91.464844 205.8125 C 92.519531 222.117188 106.394531 235.945312 126.679688 240.617188 C 134.328125 242.359375 142.433594 243.777344 150.859375 244.785156 L 150.859375 260.765625 L 132.542969 260.765625 C 117.382812 260.765625 105.066406 273.085938 105.066406 288.246094 L 105.066406 320.300781 C 105.066406 322.820312 107.125 324.878906 109.644531 324.878906 C 112.164062 324.878906 114.226562 322.820312 114.226562 320.300781 L 114.226562 288.246094 C 114.226562 278.125 122.421875 269.925781 132.542969 269.925781 L 242.449219 269.925781 C 252.570312 269.925781 260.769531 278.125 260.769531 288.246094 L 260.769531 320.300781 C 260.769531 322.820312 262.828125 324.878906 265.347656 324.878906 C 267.867188 324.878906 269.925781 322.820312 269.925781 320.300781 L 269.925781 288.246094 C 269.925781 273.085938 257.609375 260.765625 242.449219 260.765625 L 224.132812 260.765625 L 224.132812 244.785156 C 232.558594 243.777344 240.664062 242.359375 248.3125 240.617188 C 268.597656 235.945312 282.476562 222.117188 283.527344 205.8125 L 288.246094 205.8125 C 295.800781 205.8125 301.984375 199.632812 301.984375 192.074219 L 301.984375 173.757812 C 301.984375 166.199219 295.800781 160.019531 288.246094 160.019531 Z M 187.496094 59.269531 C 190.015625 59.269531 192.074219 61.332031 192.074219 63.847656 C 192.074219 66.367188 190.015625 68.429688 187.496094 68.429688 C 184.976562 68.429688 182.917969 66.367188 182.917969 63.847656 C 182.917969 61.332031 184.976562 59.269531 187.496094 59.269531 Z M 274.507812 164.597656 L 274.507812 203.707031 C 274.507812 216.347656 262.875 227.839844 246.25 231.6875 C 228.574219 235.71875 208.242188 237.871094 187.496094 237.871094 C 166.75 237.871094 146.417969 235.71875 128.742188 231.6875 C 112.117188 227.839844 100.484375 216.347656 100.484375 203.707031 L 100.484375 162.125 C 100.484375 149.484375 112.117188 137.992188 128.742188 134.144531 C 146.417969 130.113281 166.75 127.960938 187.496094 127.960938 C 208.242188 127.960938 228.574219 130.113281 246.25 134.144531 C 262.875 137.992188 274.507812 149.484375 274.507812 162.125 Z M 274.507812 164.597656 " fill-opacity="1" fill-rule="nonzero"/></g><g clip-path="url(#124a6b74ab)"><path fill="#276d5a" d="M 224.132812 297.402344 L 150.859375 297.402344 C 143.304688 297.402344 137.121094 303.585938 137.121094 311.140625 L 137.121094 320.300781 C 137.121094 322.820312 139.183594 324.878906 141.703125 324.878906 L 233.292969 324.878906 C 235.808594 324.878906 237.871094 322.820312 237.871094 320.300781 L 237.871094 311.140625 C 237.871094 303.585938 231.6875 297.402344 224.132812 297.402344 Z M 224.132812 297.402344 " fill-opacity="1" fill-rule="nonzero"/></g><path fill="#276d5a" d="M 192.074219 283.664062 C 192.074219 283.964844 192.046875 284.261719 191.988281 284.558594 C 191.929688 284.851562 191.84375 285.140625 191.726562 285.417969 C 191.613281 285.695312 191.472656 285.957031 191.304688 286.207031 C 191.136719 286.457031 190.949219 286.691406 190.734375 286.902344 C 190.523438 287.117188 190.289062 287.304688 190.039062 287.472656 C 189.789062 287.640625 189.527344 287.78125 189.25 287.894531 C 188.972656 288.011719 188.683594 288.097656 188.390625 288.15625 C 188.09375 288.214844 187.796875 288.246094 187.496094 288.246094 C 187.195312 288.246094 186.898438 288.214844 186.601562 288.15625 C 186.308594 288.097656 186.023438 288.011719 185.742188 287.894531 C 185.464844 287.78125 185.203125 287.640625 184.953125 287.472656 C 184.703125 287.304688 184.472656 287.117188 184.257812 286.902344 C 184.046875 286.691406 183.855469 286.457031 183.6875 286.207031 C 183.523438 285.957031 183.378906 285.695312 183.265625 285.417969 C 183.152344 285.140625 183.0625 284.851562 183.003906 284.558594 C 182.945312 284.261719 182.917969 283.964844 182.917969 283.664062 C 182.917969 283.363281 182.945312 283.066406 183.003906 282.769531 C 183.0625 282.476562 183.152344 282.191406 183.265625 281.914062 C 183.378906 281.632812 183.523438 281.371094 183.6875 281.121094 C 183.855469 280.871094 184.046875 280.640625 184.257812 280.425781 C 184.472656 280.214844 184.703125 280.023438 184.953125 279.855469 C 185.203125 279.691406 185.464844 279.550781 185.742188 279.433594 C 186.023438 279.320312 186.308594 279.230469 186.601562 279.171875 C 186.898438 279.113281 187.195312 279.085938 187.496094 279.085938 C 187.796875 279.085938 188.09375 279.113281 188.390625 279.171875 C 188.683594 279.230469 188.972656 279.320312 189.25 279.433594 C 189.527344 279.550781 189.789062 279.691406 190.039062 279.855469 C 190.289062 280.023438 190.523438 280.214844 190.734375 280.425781 C 190.949219 280.640625 191.136719 280.871094 191.304688 281.121094 C 191.472656 281.371094 191.613281 281.632812 191.726562 281.914062 C 191.84375 282.191406 191.929688 282.476562 191.988281 282.769531 C 192.046875 283.066406 192.074219 283.363281 192.074219 283.664062 Z M 192.074219 283.664062 " fill-opacity="1" fill-rule="nonzero"/><path fill="#276d5a" d="M 169.179688 283.664062 C 169.179688 283.964844 169.148438 284.261719 169.089844 284.558594 C 169.03125 284.851562 168.945312 285.140625 168.828125 285.417969 C 168.714844 285.695312 168.574219 285.957031 168.40625 286.207031 C 168.238281 286.457031 168.050781 286.691406 167.835938 286.902344 C 167.625 287.117188 167.394531 287.304688 167.144531 287.472656 C 166.894531 287.640625 166.628906 287.78125 166.351562 287.894531 C 166.074219 288.011719 165.789062 288.097656 165.492188 288.15625 C 165.199219 288.214844 164.898438 288.246094 164.597656 288.246094 C 164.296875 288.246094 164 288.214844 163.707031 288.15625 C 163.410156 288.097656 163.125 288.011719 162.847656 287.894531 C 162.570312 287.78125 162.304688 287.640625 162.054688 287.472656 C 161.804688 287.304688 161.574219 287.117188 161.359375 286.902344 C 161.148438 286.691406 160.957031 286.457031 160.792969 286.207031 C 160.625 285.957031 160.484375 285.695312 160.367188 285.417969 C 160.253906 285.140625 160.167969 284.851562 160.109375 284.558594 C 160.050781 284.261719 160.019531 283.964844 160.019531 283.664062 C 160.019531 283.363281 160.050781 283.066406 160.109375 282.769531 C 160.167969 282.476562 160.253906 282.191406 160.367188 281.914062 C 160.484375 281.632812 160.625 281.371094 160.792969 281.121094 C 160.957031 280.871094 161.148438 280.640625 161.359375 280.425781 C 161.574219 280.214844 161.804688 280.023438 162.054688 279.855469 C 162.304688 279.691406 162.570312 279.550781 162.847656 279.433594 C 163.125 279.320312 163.410156 279.230469 163.707031 279.171875 C 164 279.113281 164.296875 279.085938 164.597656 279.085938 C 164.898438 279.085938 165.199219 279.113281 165.492188 279.171875 C 165.789062 279.230469 166.074219 279.320312 166.351562 279.433594 C 166.628906 279.550781 166.894531 279.691406 167.144531 279.855469 C 167.394531 280.023438 167.625 280.214844 167.835938 280.425781 C 168.050781 280.640625 168.238281 280.871094 168.40625 281.121094 C 168.574219 281.371094 168.714844 281.632812 168.828125 281.914062 C 168.945312 282.191406 169.03125 282.476562 169.089844 282.769531 C 169.148438 283.066406 169.179688 283.363281 169.179688 283.664062 Z M 169.179688 283.664062 " fill-opacity="1" fill-rule="nonzero"/><path fill="#276d5a" d="M 214.972656 283.664062 C 214.972656 283.964844 214.945312 284.261719 214.886719 284.558594 C 214.828125 284.851562 214.738281 285.140625 214.625 285.417969 C 214.511719 285.695312 214.367188 285.957031 214.203125 286.207031 C 214.035156 286.457031 213.84375 286.691406 213.632812 286.902344 C 213.417969 287.117188 213.1875 287.304688 212.9375 287.472656 C 212.6875 287.640625 212.425781 287.78125 212.144531 287.894531 C 211.867188 288.011719 211.582031 288.097656 211.289062 288.15625 C 210.992188 288.214844 210.695312 288.246094 210.394531 288.246094 C 210.09375 288.246094 209.796875 288.214844 209.5 288.15625 C 209.207031 288.097656 208.917969 288.011719 208.640625 287.894531 C 208.363281 287.78125 208.101562 287.640625 207.851562 287.472656 C 207.601562 287.304688 207.367188 287.117188 207.15625 286.902344 C 206.941406 286.691406 206.753906 286.457031 206.585938 286.207031 C 206.417969 285.957031 206.277344 285.695312 206.164062 285.417969 C 206.046875 285.140625 205.960938 284.851562 205.902344 284.558594 C 205.84375 284.261719 205.816406 283.964844 205.816406 283.664062 C 205.816406 283.363281 205.84375 283.066406 205.902344 282.769531 C 205.960938 282.476562 206.046875 282.191406 206.164062 281.914062 C 206.277344 281.632812 206.417969 281.371094 206.585938 281.121094 C 206.753906 280.871094 206.941406 280.640625 207.15625 280.425781 C 207.367188 280.214844 207.601562 280.023438 207.851562 279.855469 C 208.101562 279.691406 208.363281 279.550781 208.640625 279.433594 C 208.917969 279.320312 209.207031 279.230469 209.5 279.171875 C 209.796875 279.113281 210.09375 279.085938 210.394531 279.085938 C 210.695312 279.085938 210.992188 279.113281 211.289062 279.171875 C 211.582031 279.230469 211.867188 279.320312 212.144531 279.433594 C 212.425781 279.550781 212.6875 279.691406 212.9375 279.855469 C 213.1875 280.023438 213.417969 280.214844 213.632812 280.425781 C 213.84375 280.640625 214.035156 280.871094 214.203125 281.121094 C 214.367188 281.371094 214.511719 281.632812 214.625 281.914062 C 214.738281 282.191406 214.828125 282.476562 214.886719 282.769531 C 214.945312 283.066406 214.972656 283.363281 214.972656 283.664062 Z M 214.972656 283.664062 " fill-opacity="1" fill-rule="nonzero"/></svg>