<svg xmlns="http://www.w3.org/2000/svg" xmlns:xlink="http://www.w3.org/1999/xlink" width="500" zoomAndPan="magnify" viewBox="0 0 375 374.999991" height="500" preserveAspectRatio="xMidYMid meet" version="1.0"><defs><clipPath id="f5e2900a3f"><path d="M 163 56.210938 L 212 56.210938 L 212 116 L 163 116 Z M 163 56.210938 " clip-rule="nonzero"/></clipPath><clipPath id="17e27c1c66"><path d="M 189 256 L 229 256 L 229 318.710938 L 189 318.710938 Z M 189 256 " clip-rule="nonzero"/></clipPath><clipPath id="cff3f77049"><path d="M 146 256 L 186 256 L 186 318.710938 L 146 318.710938 Z M 146 256 " clip-rule="nonzero"/></clipPath><clipPath id="540f3a5f9d"><path d="M 163 56.210938 L 212 56.210938 L 212 116 L 163 116 Z M 163 56.210938 " clip-rule="nonzero"/></clipPath><clipPath id="3dd8488fde"><path d="M 189 256 L 229 256 L 229 318.710938 L 189 318.710938 Z M 189 256 " clip-rule="nonzero"/></clipPath><clipPath id="0930407b2f"><path d="M 146 256 L 186 256 L 186 318.710938 L 146 318.710938 Z M 146 256 " clip-rule="nonzero"/></clipPath></defs><path fill="#276d5a" d="M 74.882812 190.855469 L 68.542969 181.804688 L 74.882812 168.207031 L 68.542969 181.804688 L 74.882812 190.855469 " fill-opacity="1" fill-rule="nonzero"/><g clip-path="url(#f5e2900a3f)"><path fill="#276d5a" d="M 187.496094 115.207031 C 200.613281 115.207031 211.253906 99.429688 211.253906 81.757812 C 211.253906 64.085938 200.613281 56.105469 187.496094 56.105469 C 174.382812 56.105469 163.742188 64.085938 163.742188 81.757812 C 163.742188 99.429688 174.382812 115.207031 187.496094 115.207031 " fill-opacity="1" fill-rule="nonzero"/></g><path fill="#276d5a" d="M 217.320312 256.441406 L 217.320312 212.589844 C 242.679688 176.457031 246.003906 174.773438 242.472656 167.195312 C 231.445312 143.570312 231.332031 128.097656 215.203125 125.449219 C 206.96875 124.097656 193.582031 134.835938 181.253906 130.96875 C 165.972656 126.167969 163.613281 124.804688 159.648438 125.449219 C 152.957031 126.554688 147.175781 131.050781 144.546875 137.46875 C 131.558594 169.203125 128.894531 171.804688 133.339844 178.144531 L 157.53125 212.589844 L 157.53125 256.441406 Z M 217.320312 149.765625 L 227.402344 171.386719 L 217.320312 185.75 Z M 157.53125 185.75 L 147.449219 171.386719 L 157.53125 149.765625 Z M 206.503906 136.042969 C 206.503906 146.007812 198.796875 154.210938 189.039062 155.03125 L 189.039062 185.367188 C 198.363281 187.292969 196.917969 201.113281 187.417969 201.113281 C 177.914062 201.113281 176.488281 187.292969 185.8125 185.367188 L 185.8125 155.03125 C 176.054688 154.210938 168.347656 146.007812 168.347656 136.042969 L 168.347656 126.925781 L 171.574219 127.933594 L 171.574219 136.042969 C 171.574219 144.773438 178.6875 151.882812 187.417969 151.882812 C 196.164062 151.882812 203.277344 144.773438 203.277344 136.042969 L 203.277344 127.933594 L 206.503906 126.925781 L 206.503906 136.042969 " fill-opacity="1" fill-rule="nonzero"/><g clip-path="url(#17e27c1c66)"><path fill="#276d5a" d="M 213.933594 310.710938 L 213.933594 256.441406 L 189.199219 256.441406 L 196.839844 317.917969 L 196.839844 318.476562 L 228.574219 318.476562 C 228.574219 312.957031 224.976562 311.929688 213.933594 310.710938 " fill-opacity="1" fill-rule="nonzero"/></g><g clip-path="url(#cff3f77049)"><path fill="#276d5a" d="M 160.917969 310.742188 C 149.601562 312.042969 146.277344 313.085938 146.277344 318.476562 L 178.011719 318.476562 L 178.011719 317.917969 L 185.652344 256.441406 L 160.917969 256.441406 L 160.917969 310.742188 " fill-opacity="1" fill-rule="nonzero"/></g><path fill="#276d5a" d="M 281.253906 146.457031 C 289.503906 146.457031 296.195312 136.523438 296.195312 125.398438 C 296.195312 114.277344 289.503906 109.253906 281.253906 109.253906 C 272.984375 109.253906 266.292969 114.277344 266.292969 125.398438 C 266.292969 136.523438 272.984375 146.457031 281.253906 146.457031 " fill-opacity="1" fill-rule="nonzero"/><path fill="#276d5a" d="M 300.015625 235.347656 L 300.015625 207.742188 C 315.988281 185.011719 318.074219 183.9375 315.84375 179.171875 C 308.910156 164.308594 308.84375 154.5625 298.683594 152.894531 C 293.5 152.058594 285.074219 158.800781 277.320312 156.378906 C 267.707031 153.359375 266.210938 152.492188 263.722656 152.894531 C 259.503906 153.585938 255.875 156.425781 254.207031 160.472656 C 246.035156 180.4375 244.367188 182.074219 247.160156 186.054688 L 262.390625 207.742188 L 262.390625 235.347656 Z M 300.015625 190.855469 L 300.015625 168.207031 L 303.195312 175.011719 L 306.355469 181.804688 L 303.195312 186.328125 Z M 262.390625 190.855469 L 256.035156 181.804688 L 262.390625 168.207031 Z M 293.210938 159.554688 C 293.210938 165.832031 288.363281 171 282.214844 171.515625 L 282.214844 190.613281 C 288.089844 191.820312 287.175781 200.519531 281.203125 200.519531 C 275.21875 200.519531 274.316406 191.820312 280.191406 190.613281 L 280.191406 171.515625 C 274.046875 171 269.199219 165.832031 269.199219 159.554688 L 269.199219 153.824219 L 271.21875 154.453125 L 271.21875 159.554688 C 271.21875 165.0625 275.699219 169.539062 281.203125 169.539062 C 286.710938 169.539062 291.1875 165.0625 291.1875 159.554688 L 291.1875 154.453125 L 293.210938 153.824219 L 293.210938 159.554688 " fill-opacity="1" fill-rule="nonzero"/><path fill="#276d5a" d="M 264.511719 269.523438 C 257.402344 270.339844 255.296875 271 255.296875 274.386719 L 275.265625 274.386719 L 275.265625 274.03125 L 280.082031 235.347656 L 264.511719 235.347656 L 264.511719 269.523438 " fill-opacity="1" fill-rule="nonzero"/><path fill="#276d5a" d="M 297.882812 269.507812 L 297.882812 235.347656 L 282.3125 235.347656 L 287.128906 274.03125 L 287.128906 274.386719 L 307.09375 274.386719 C 307.09375 270.917969 304.832031 270.277344 297.882812 269.507812 " fill-opacity="1" fill-rule="nonzero"/><path fill="#276d5a" d="M 93.742188 146.457031 C 102.007812 146.457031 108.703125 136.523438 108.703125 125.398438 C 108.703125 114.277344 102.007812 109.253906 93.742188 109.253906 C 85.492188 109.253906 78.800781 114.277344 78.800781 125.398438 C 78.800781 136.523438 85.492188 146.457031 93.742188 146.457031 " fill-opacity="1" fill-rule="nonzero"/><path fill="#276d5a" d="M 112.523438 235.347656 L 112.523438 207.742188 C 128.492188 185.011719 130.582031 183.9375 128.347656 179.171875 C 121.414062 164.308594 121.335938 154.5625 111.175781 152.894531 C 106.007812 152.058594 97.578125 158.800781 89.828125 156.378906 C 80.195312 153.359375 78.71875 152.492188 76.230469 152.894531 C 72.011719 153.585938 68.382812 156.425781 66.714844 160.472656 C 58.542969 180.4375 56.859375 182.074219 59.667969 186.054688 L 74.882812 207.742188 L 74.882812 235.347656 Z M 112.523438 168.207031 L 118.863281 181.804688 L 112.523438 190.855469 Z M 74.882812 190.855469 L 68.542969 181.804688 L 74.882812 168.207031 Z M 105.703125 159.554688 C 105.703125 165.832031 100.855469 171 94.707031 171.515625 L 94.707031 190.613281 C 100.597656 191.820312 99.683594 200.519531 93.695312 200.519531 C 87.722656 200.519531 86.824219 191.820312 92.683594 190.613281 L 92.683594 171.515625 C 86.550781 171 81.707031 165.832031 81.707031 159.554688 L 81.707031 153.824219 L 83.726562 154.453125 L 83.726562 159.554688 C 83.726562 165.0625 88.207031 169.539062 93.695312 169.539062 C 99.199219 169.539062 103.679688 165.0625 103.679688 159.554688 L 103.679688 154.453125 L 105.703125 153.824219 L 105.703125 159.554688 " fill-opacity="1" fill-rule="nonzero"/><path fill="#276d5a" d="M 77.019531 269.523438 C 69.90625 270.339844 67.804688 271 67.804688 274.386719 L 87.773438 274.386719 L 87.773438 274.03125 L 92.585938 235.347656 L 77.019531 235.347656 L 77.019531 269.523438 " fill-opacity="1" fill-rule="nonzero"/><path fill="#276d5a" d="M 110.386719 269.507812 L 110.386719 235.347656 L 94.820312 235.347656 L 99.632812 274.03125 L 99.632812 274.386719 L 119.601562 274.386719 C 119.601562 270.917969 117.339844 270.277344 110.386719 269.507812 " fill-opacity="1" fill-rule="nonzero"/><path fill="#276d5a" d="M 97.242188 195.574219 C 97.242188 197.53125 95.652344 199.121094 93.695312 199.121094 C 91.753906 199.121094 90.164062 197.53125 90.164062 195.574219 C 90.164062 193.617188 91.753906 192.042969 93.695312 192.042969 C 95.652344 192.042969 97.242188 193.617188 97.242188 195.574219 " fill-opacity="1" fill-rule="nonzero"/><path fill="#276d5a" d="M 192.523438 193.296875 C 192.523438 196.121094 190.242188 198.398438 187.417969 198.398438 C 184.609375 198.398438 182.328125 196.121094 182.328125 193.296875 C 182.328125 190.488281 184.609375 188.207031 187.417969 188.207031 C 190.242188 188.207031 192.523438 190.488281 192.523438 193.296875 " fill-opacity="1" fill-rule="nonzero"/><path fill="#276d5a" d="M 284.734375 195.496094 C 284.734375 197.453125 283.164062 199.027344 281.203125 199.027344 C 279.246094 199.027344 277.65625 197.453125 277.65625 195.496094 C 277.65625 193.535156 279.246094 191.945312 281.203125 191.945312 C 283.164062 191.945312 284.734375 193.535156 284.734375 195.496094 " fill-opacity="1" fill-rule="nonzero"/><path fill="#276d5a" d="M 74.882812 190.855469 L 68.542969 181.804688 L 74.882812 168.207031 L 68.542969 181.804688 L 74.882812 190.855469 " fill-opacity="1" fill-rule="nonzero"/><g clip-path="url(#540f3a5f9d)"><path fill="#276d5a" d="M 187.496094 115.207031 C 200.613281 115.207031 211.253906 99.429688 211.253906 81.757812 C 211.253906 64.085938 200.613281 56.105469 187.496094 56.105469 C 174.382812 56.105469 163.742188 64.085938 163.742188 81.757812 C 163.742188 99.429688 174.382812 115.207031 187.496094 115.207031 " fill-opacity="1" fill-rule="nonzero"/></g><path fill="#276d5a" d="M 217.320312 256.441406 L 217.320312 212.589844 C 242.679688 176.457031 246.003906 174.773438 242.472656 167.195312 C 231.445312 143.570312 231.332031 128.097656 215.203125 125.449219 C 206.96875 124.097656 193.582031 134.835938 181.253906 130.96875 C 165.972656 126.167969 163.613281 124.804688 159.648438 125.449219 C 152.957031 126.554688 147.175781 131.050781 144.546875 137.46875 C 131.558594 169.203125 128.894531 171.804688 133.339844 178.144531 L 157.53125 212.589844 L 157.53125 256.441406 Z M 217.320312 149.765625 L 227.402344 171.386719 L 217.320312 185.75 Z M 157.53125 185.75 L 147.449219 171.386719 L 157.53125 149.765625 Z M 206.503906 136.042969 C 206.503906 146.007812 198.796875 154.210938 189.039062 155.03125 L 189.039062 185.367188 C 198.363281 187.292969 196.917969 201.113281 187.417969 201.113281 C 177.914062 201.113281 176.488281 187.292969 185.8125 185.367188 L 185.8125 155.03125 C 176.054688 154.210938 168.347656 146.007812 168.347656 136.042969 L 168.347656 126.925781 L 171.574219 127.933594 L 171.574219 136.042969 C 171.574219 144.773438 178.6875 151.882812 187.417969 151.882812 C 196.164062 151.882812 203.277344 144.773438 203.277344 136.042969 L 203.277344 127.933594 L 206.503906 126.925781 L 206.503906 136.042969 " fill-opacity="1" fill-rule="nonzero"/><g clip-path="url(#3dd8488fde)"><path fill="#276d5a" d="M 213.933594 310.710938 L 213.933594 256.441406 L 189.199219 256.441406 L 196.839844 317.917969 L 196.839844 318.476562 L 228.574219 318.476562 C 228.574219 312.957031 224.976562 311.929688 213.933594 310.710938 " fill-opacity="1" fill-rule="nonzero"/></g><g clip-path="url(#0930407b2f)"><path fill="#276d5a" d="M 160.917969 310.742188 C 149.601562 312.042969 146.277344 313.085938 146.277344 318.476562 L 178.011719 318.476562 L 178.011719 317.917969 L 185.652344 256.441406 L 160.917969 256.441406 L 160.917969 310.742188 " fill-opacity="1" fill-rule="nonzero"/></g><path fill="#276d5a" d="M 281.253906 146.457031 C 289.503906 146.457031 296.195312 136.523438 296.195312 125.398438 C 296.195312 114.277344 289.503906 109.253906 281.253906 109.253906 C 272.984375 109.253906 266.292969 114.277344 266.292969 125.398438 C 266.292969 136.523438 272.984375 146.457031 281.253906 146.457031 " fill-opacity="1" fill-rule="nonzero"/><path fill="#276d5a" d="M 300.015625 235.347656 L 300.015625 207.742188 C 315.988281 185.011719 318.074219 183.9375 315.84375 179.171875 C 308.910156 164.308594 308.84375 154.5625 298.683594 152.894531 C 293.5 152.058594 285.074219 158.800781 277.320312 156.378906 C 267.707031 153.359375 266.210938 152.492188 263.722656 152.894531 C 259.503906 153.585938 255.875 156.425781 254.207031 160.472656 C 246.035156 180.4375 244.367188 182.074219 247.160156 186.054688 L 262.390625 207.742188 L 262.390625 235.347656 Z M 300.015625 190.855469 L 300.015625 168.207031 L 303.195312 175.011719 L 306.355469 181.804688 L 303.195312 186.328125 Z M 262.390625 190.855469 L 256.035156 181.804688 L 262.390625 168.207031 Z M 293.210938 159.554688 C 293.210938 165.832031 288.363281 171 282.214844 171.515625 L 282.214844 190.613281 C 288.089844 191.820312 287.175781 200.519531 281.203125 200.519531 C 275.21875 200.519531 274.316406 191.820312 280.191406 190.613281 L 280.191406 171.515625 C 274.046875 171 269.199219 165.832031 269.199219 159.554688 L 269.199219 153.824219 L 271.21875 154.453125 L 271.21875 159.554688 C 271.21875 165.0625 275.699219 169.539062 281.203125 169.539062 C 286.710938 169.539062 291.1875 165.0625 291.1875 159.554688 L 291.1875 154.453125 L 293.210938 153.824219 L 293.210938 159.554688 " fill-opacity="1" fill-rule="nonzero"/><path fill="#276d5a" d="M 264.511719 269.523438 C 257.402344 270.339844 255.296875 271 255.296875 274.386719 L 275.265625 274.386719 L 275.265625 274.03125 L 280.082031 235.347656 L 264.511719 235.347656 L 264.511719 269.523438 " fill-opacity="1" fill-rule="nonzero"/><path fill="#276d5a" d="M 297.882812 269.507812 L 297.882812 235.347656 L 282.3125 235.347656 L 287.128906 274.03125 L 287.128906 274.386719 L 307.09375 274.386719 C 307.09375 270.917969 304.832031 270.277344 297.882812 269.507812 " fill-opacity="1" fill-rule="nonzero"/><path fill="#276d5a" d="M 93.742188 146.457031 C 102.007812 146.457031 108.703125 136.523438 108.703125 125.398438 C 108.703125 114.277344 102.007812 109.253906 93.742188 109.253906 C 85.492188 109.253906 78.800781 114.277344 78.800781 125.398438 C 78.800781 136.523438 85.492188 146.457031 93.742188 146.457031 " fill-opacity="1" fill-rule="nonzero"/><path fill="#276d5a" d="M 112.523438 235.347656 L 112.523438 207.742188 C 128.492188 185.011719 130.582031 183.9375 128.347656 179.171875 C 121.414062 164.308594 121.335938 154.5625 111.175781 152.894531 C 106.007812 152.058594 97.578125 158.800781 89.828125 156.378906 C 80.195312 153.359375 78.71875 152.492188 76.230469 152.894531 C 72.011719 153.585938 68.382812 156.425781 66.714844 160.472656 C 58.542969 180.4375 56.859375 182.074219 59.667969 186.054688 L 74.882812 207.742188 L 74.882812 235.347656 Z M 112.523438 168.207031 L 118.863281 181.804688 L 112.523438 190.855469 Z M 74.882812 190.855469 L 68.542969 181.804688 L 74.882812 168.207031 Z M 105.703125 159.554688 C 105.703125 165.832031 100.855469 171 94.707031 171.515625 L 94.707031 190.613281 C 100.597656 191.820312 99.683594 200.519531 93.695312 200.519531 C 87.722656 200.519531 86.824219 191.820312 92.683594 190.613281 L 92.683594 171.515625 C 86.550781 171 81.707031 165.832031 81.707031 159.554688 L 81.707031 153.824219 L 83.726562 154.453125 L 83.726562 159.554688 C 83.726562 165.0625 88.207031 169.539062 93.695312 169.539062 C 99.199219 169.539062 103.679688 165.0625 103.679688 159.554688 L 103.679688 154.453125 L 105.703125 153.824219 L 105.703125 159.554688 " fill-opacity="1" fill-rule="nonzero"/><path fill="#276d5a" d="M 77.019531 269.523438 C 69.90625 270.339844 67.804688 271 67.804688 274.386719 L 87.773438 274.386719 L 87.773438 274.03125 L 92.585938 235.347656 L 77.019531 235.347656 L 77.019531 269.523438 " fill-opacity="1" fill-rule="nonzero"/><path fill="#276d5a" d="M 110.386719 269.507812 L 110.386719 235.347656 L 94.820312 235.347656 L 99.632812 274.03125 L 99.632812 274.386719 L 119.601562 274.386719 C 119.601562 270.917969 117.339844 270.277344 110.386719 269.507812 " fill-opacity="1" fill-rule="nonzero"/><path fill="#276d5a" d="M 97.242188 195.574219 C 97.242188 197.53125 95.652344 199.121094 93.695312 199.121094 C 91.753906 199.121094 90.164062 197.53125 90.164062 195.574219 C 90.164062 193.617188 91.753906 192.042969 93.695312 192.042969 C 95.652344 192.042969 97.242188 193.617188 97.242188 195.574219 " fill-opacity="1" fill-rule="nonzero"/><path fill="#276d5a" d="M 192.523438 193.296875 C 192.523438 196.121094 190.242188 198.398438 187.417969 198.398438 C 184.609375 198.398438 182.328125 196.121094 182.328125 193.296875 C 182.328125 190.488281 184.609375 188.207031 187.417969 188.207031 C 190.242188 188.207031 192.523438 190.488281 192.523438 193.296875 " fill-opacity="1" fill-rule="nonzero"/><path fill="#276d5a" d="M 284.734375 195.496094 C 284.734375 197.453125 283.164062 199.027344 281.203125 199.027344 C 279.246094 199.027344 277.65625 197.453125 277.65625 195.496094 C 277.65625 193.535156 279.246094 191.945312 281.203125 191.945312 C 283.164062 191.945312 284.734375 193.535156 284.734375 195.496094 " fill-opacity="1" fill-rule="nonzero"/></svg>