<svg xmlns="http://www.w3.org/2000/svg" xmlns:xlink="http://www.w3.org/1999/xlink" width="500" zoomAndPan="magnify" viewBox="0 0 375 374.999991" height="500" preserveAspectRatio="xMidYMid meet" version="1.0"><defs><clipPath id="25488ab88d"><path d="M 41.597656 114 L 246 114 L 246 318.6875 L 41.597656 318.6875 Z M 41.597656 114 " clip-rule="nonzero"/></clipPath><clipPath id="e1022ca8f8"><path d="M 245 114 L 333.347656 114 L 333.347656 144 L 245 144 Z M 245 114 " clip-rule="nonzero"/></clipPath><clipPath id="1967053f6d"><path d="M 41.597656 56.1875 L 333.347656 56.1875 L 333.347656 86 L 41.597656 86 Z M 41.597656 56.1875 " clip-rule="nonzero"/></clipPath><clipPath id="a63cc81284"><path d="M 275 172 L 333.347656 172 L 333.347656 203 L 275 203 Z M 275 172 " clip-rule="nonzero"/></clipPath><clipPath id="28f9bfed09"><path d="M 275 231 L 333.347656 231 L 333.347656 261 L 275 261 Z M 275 231 " clip-rule="nonzero"/></clipPath><clipPath id="77441b2d7c"><path d="M 245 289 L 333.347656 289 L 333.347656 318.6875 L 245 318.6875 Z M 245 289 " clip-rule="nonzero"/></clipPath><clipPath id="b0dd36d65c"><path d="M 41.597656 114 L 246 114 L 246 318.6875 L 41.597656 318.6875 Z M 41.597656 114 " clip-rule="nonzero"/></clipPath><clipPath id="d7bb172097"><path d="M 245 114 L 333.347656 114 L 333.347656 144 L 245 144 Z M 245 114 " clip-rule="nonzero"/></clipPath><clipPath id="0f8ffe97ec"><path d="M 41.597656 56.1875 L 333.347656 56.1875 L 333.347656 86 L 41.597656 86 Z M 41.597656 56.1875 " clip-rule="nonzero"/></clipPath><clipPath id="ba2b3243d9"><path d="M 275 172 L 333.347656 172 L 333.347656 203 L 275 203 Z M 275 172 " clip-rule="nonzero"/></clipPath><clipPath id="8313addc48"><path d="M 275 231 L 333.347656 231 L 333.347656 261 L 275 261 Z M 275 231 " clip-rule="nonzero"/></clipPath><clipPath id="6ecb4e1fd0"><path d="M 245 289 L 333.347656 289 L 333.347656 318.6875 L 245 318.6875 Z M 245 289 " clip-rule="nonzero"/></clipPath></defs><g clip-path="url(#25488ab88d)"><path fill="#276d5a" d="M 143.726562 114.546875 C 142.054688 114.546875 140.382812 114.585938 138.714844 114.667969 C 137.046875 114.75 135.378906 114.875 133.714844 115.039062 C 132.050781 115.203125 130.394531 115.40625 128.742188 115.652344 C 127.085938 115.898438 125.441406 116.183594 123.800781 116.507812 C 122.164062 116.835938 120.53125 117.199219 118.910156 117.605469 C 117.289062 118.011719 115.679688 118.460938 114.078125 118.945312 C 112.480469 119.429688 110.894531 119.953125 109.320312 120.515625 C 107.746094 121.078125 106.1875 121.679688 104.644531 122.320312 C 103.097656 122.960938 101.570312 123.636719 100.058594 124.351562 C 98.550781 125.066406 97.054688 125.816406 95.582031 126.605469 C 94.109375 127.394531 92.65625 128.21875 91.222656 129.078125 C 89.789062 129.9375 88.375 130.828125 86.984375 131.757812 C 85.597656 132.6875 84.230469 133.648438 82.886719 134.644531 C 81.546875 135.640625 80.226562 136.667969 78.9375 137.730469 C 77.644531 138.789062 76.378906 139.878906 75.140625 141.003906 C 73.902344 142.125 72.691406 143.277344 71.507812 144.460938 C 70.328125 145.640625 69.175781 146.851562 68.054688 148.089844 C 66.929688 149.328125 65.839844 150.59375 64.777344 151.886719 C 63.71875 153.175781 62.691406 154.496094 61.695312 155.835938 C 60.699219 157.179688 59.738281 158.546875 58.808594 159.9375 C 57.878906 161.324219 56.984375 162.738281 56.125 164.171875 C 55.269531 165.605469 54.445312 167.058594 53.65625 168.53125 C 52.867188 170.007812 52.117188 171.5 51.402344 173.007812 C 50.6875 174.519531 50.011719 176.046875 49.371094 177.59375 C 48.730469 179.136719 48.128906 180.695312 47.566406 182.269531 C 47.003906 183.84375 46.480469 185.429688 45.996094 187.027344 C 45.507812 188.628906 45.0625 190.238281 44.65625 191.859375 C 44.25 193.480469 43.886719 195.113281 43.558594 196.75 C 43.234375 198.390625 42.949219 200.035156 42.703125 201.691406 C 42.457031 203.34375 42.253906 205 42.089844 206.664062 C 41.925781 208.328125 41.800781 209.996094 41.71875 211.664062 C 41.636719 213.332031 41.597656 215.003906 41.597656 216.675781 C 41.597656 218.347656 41.636719 220.015625 41.71875 221.6875 C 41.800781 223.355469 41.925781 225.023438 42.089844 226.6875 C 42.253906 228.347656 42.457031 230.007812 42.703125 231.660156 C 42.949219 233.3125 43.234375 234.960938 43.558594 236.601562 C 43.886719 238.238281 44.25 239.871094 44.65625 241.492188 C 45.0625 243.113281 45.507812 244.722656 45.996094 246.320312 C 46.480469 247.921875 47.003906 249.507812 47.566406 251.082031 C 48.128906 252.65625 48.730469 254.214844 49.371094 255.757812 C 50.011719 257.300781 50.6875 258.832031 51.402344 260.339844 C 52.117188 261.851562 52.867188 263.34375 53.65625 264.820312 C 54.445312 266.292969 55.269531 267.746094 56.125 269.179688 C 56.984375 270.613281 57.878906 272.027344 58.808594 273.414062 C 59.738281 274.804688 60.699219 276.171875 61.695312 277.511719 C 62.691406 278.855469 63.71875 280.171875 64.777344 281.464844 C 65.839844 282.757812 66.929688 284.023438 68.054688 285.261719 C 69.175781 286.5 70.328125 287.710938 71.507812 288.890625 C 72.691406 290.074219 73.902344 291.226562 75.140625 292.347656 C 76.378906 293.46875 77.644531 294.5625 78.9375 295.621094 C 80.226562 296.683594 81.546875 297.710938 82.886719 298.707031 C 84.230469 299.703125 85.597656 300.664062 86.984375 301.59375 C 88.375 302.519531 89.789062 303.414062 91.222656 304.273438 C 92.65625 305.132812 94.109375 305.957031 95.582031 306.746094 C 97.054688 307.53125 98.550781 308.285156 100.058594 309 C 101.570312 309.714844 103.097656 310.390625 104.644531 311.03125 C 106.1875 311.667969 107.746094 312.269531 109.320312 312.835938 C 110.894531 313.398438 112.480469 313.921875 114.078125 314.40625 C 115.679688 314.890625 117.289062 315.335938 118.910156 315.742188 C 120.53125 316.148438 122.164062 316.515625 123.800781 316.84375 C 125.441406 317.167969 127.085938 317.453125 128.742188 317.699219 C 130.394531 317.945312 132.050781 318.148438 133.714844 318.3125 C 135.378906 318.476562 137.046875 318.597656 138.714844 318.679688 C 140.382812 318.761719 142.054688 318.804688 143.726562 318.804688 C 145.398438 318.804688 147.066406 318.761719 148.738281 318.679688 C 150.40625 318.597656 152.074219 318.476562 153.734375 318.3125 C 155.398438 318.148438 157.058594 317.945312 158.710938 317.699219 C 160.363281 317.453125 162.011719 317.167969 163.648438 316.84375 C 165.289062 316.515625 166.917969 316.148438 168.542969 315.742188 C 170.164062 315.335938 171.773438 314.890625 173.371094 314.40625 C 174.972656 313.921875 176.558594 313.398438 178.132812 312.835938 C 179.707031 312.269531 181.265625 311.667969 182.808594 311.03125 C 184.351562 310.390625 185.878906 309.714844 187.390625 309 C 188.902344 308.285156 190.394531 307.53125 191.867188 306.746094 C 193.34375 305.957031 194.796875 305.132812 196.230469 304.273438 C 197.664062 303.414062 199.074219 302.519531 200.464844 301.59375 C 201.855469 300.664062 203.222656 299.703125 204.5625 298.707031 C 205.90625 297.710938 207.222656 296.683594 208.515625 295.621094 C 209.808594 294.5625 211.074219 293.46875 212.3125 292.347656 C 213.550781 291.226562 214.761719 290.074219 215.941406 288.890625 C 217.125 287.710938 218.277344 286.5 219.398438 285.261719 C 220.519531 284.023438 221.613281 282.757812 222.671875 281.464844 C 223.734375 280.171875 224.761719 278.855469 225.757812 277.511719 C 226.753906 276.171875 227.714844 274.804688 228.644531 273.414062 C 229.570312 272.027344 230.464844 270.613281 231.324219 269.179688 C 232.183594 267.746094 233.007812 266.292969 233.796875 264.820312 C 234.582031 263.34375 235.335938 261.851562 236.050781 260.339844 C 236.765625 258.832031 237.441406 257.300781 238.082031 255.757812 C 238.71875 254.214844 239.320312 252.65625 239.882812 251.082031 C 240.449219 249.507812 240.972656 247.921875 241.457031 246.320312 C 241.941406 244.722656 242.386719 243.113281 242.792969 241.492188 C 243.199219 239.871094 243.566406 238.238281 243.890625 236.601562 C 244.21875 234.960938 244.503906 233.3125 244.75 231.660156 C 244.996094 230.007812 245.199219 228.347656 245.363281 226.6875 C 245.527344 225.023438 245.648438 223.355469 245.730469 221.6875 C 245.8125 220.015625 245.855469 218.347656 245.855469 216.675781 C 245.855469 215.003906 245.8125 213.332031 245.730469 211.664062 C 245.648438 209.996094 245.527344 208.328125 245.363281 206.664062 C 245.199219 205 244.996094 203.34375 244.75 201.691406 C 244.503906 200.035156 244.21875 198.390625 243.890625 196.75 C 243.566406 195.113281 243.199219 193.480469 242.792969 191.859375 C 242.386719 190.238281 241.941406 188.628906 241.457031 187.027344 C 240.972656 185.429688 240.449219 183.84375 239.882812 182.269531 C 239.320312 180.695312 238.71875 179.136719 238.082031 177.59375 C 237.441406 176.046875 236.765625 174.519531 236.050781 173.007812 C 235.335938 171.5 234.582031 170.007812 233.796875 168.53125 C 233.007812 167.058594 232.183594 165.605469 231.324219 164.171875 C 230.464844 162.738281 229.570312 161.324219 228.644531 159.9375 C 227.714844 158.546875 226.753906 157.179688 225.757812 155.835938 C 224.761719 154.496094 223.734375 153.175781 222.671875 151.886719 C 221.613281 150.59375 220.519531 149.328125 219.398438 148.089844 C 218.277344 146.851562 217.125 145.640625 215.941406 144.460938 C 214.761719 143.277344 213.550781 142.125 212.3125 141.003906 C 211.074219 139.878906 209.808594 138.789062 208.515625 137.730469 C 207.222656 136.667969 205.90625 135.640625 204.5625 134.644531 C 203.222656 133.648438 201.855469 132.6875 200.464844 131.757812 C 199.074219 130.828125 197.664062 129.9375 196.230469 129.078125 C 194.796875 128.21875 193.34375 127.394531 191.867188 126.605469 C 190.394531 125.816406 188.902344 125.066406 187.390625 124.351562 C 185.878906 123.636719 184.351562 122.960938 182.808594 122.320312 C 181.265625 121.679688 179.707031 121.078125 178.132812 120.515625 C 176.558594 119.953125 174.972656 119.429688 173.371094 118.945312 C 171.773438 118.460938 170.164062 118.011719 168.542969 117.605469 C 166.917969 117.199219 165.289062 116.835938 163.648438 116.507812 C 162.011719 116.183594 160.363281 115.898438 158.710938 115.652344 C 157.058594 115.40625 155.398438 115.203125 153.734375 115.039062 C 152.074219 114.875 150.40625 114.75 148.738281 114.667969 C 147.066406 114.585938 145.398438 114.546875 143.726562 114.546875 Z M 143.726562 289.625 C 142.53125 289.625 141.339844 289.59375 140.144531 289.535156 C 138.953125 289.476562 137.761719 289.390625 136.574219 289.273438 C 135.386719 289.15625 134.203125 289.011719 133.023438 288.835938 C 131.839844 288.660156 130.664062 288.457031 129.492188 288.222656 C 128.324219 287.988281 127.160156 287.730469 126 287.4375 C 124.84375 287.148438 123.691406 286.828125 122.550781 286.484375 C 121.40625 286.136719 120.273438 285.761719 119.148438 285.359375 C 118.027344 284.957031 116.914062 284.527344 115.808594 284.070312 C 114.707031 283.613281 113.613281 283.132812 112.535156 282.621094 C 111.457031 282.109375 110.390625 281.574219 109.335938 281.011719 C 108.285156 280.449219 107.246094 279.859375 106.222656 279.246094 C 105.199219 278.632812 104.191406 277.992188 103.199219 277.332031 C 102.203125 276.667969 101.230469 275.980469 100.269531 275.269531 C 99.3125 274.558594 98.371094 273.824219 97.449219 273.066406 C 96.523438 272.308594 95.621094 271.527344 94.734375 270.726562 C 93.851562 269.925781 92.988281 269.101562 92.144531 268.257812 C 91.296875 267.414062 90.476562 266.550781 89.675781 265.664062 C 88.871094 264.78125 88.09375 263.875 87.335938 262.953125 C 86.578125 262.03125 85.84375 261.089844 85.132812 260.132812 C 84.421875 259.171875 83.734375 258.195312 83.070312 257.203125 C 82.40625 256.210938 81.769531 255.203125 81.15625 254.179688 C 80.542969 253.15625 79.953125 252.117188 79.390625 251.0625 C 78.828125 250.011719 78.289062 248.945312 77.78125 247.863281 C 77.269531 246.785156 76.785156 245.695312 76.328125 244.59375 C 75.871094 243.488281 75.441406 242.375 75.039062 241.25 C 74.640625 240.128906 74.265625 238.992188 73.917969 237.851562 C 73.570312 236.710938 73.253906 235.558594 72.960938 234.402344 C 72.671875 233.242188 72.410156 232.078125 72.179688 230.90625 C 71.945312 229.734375 71.742188 228.558594 71.566406 227.378906 C 71.390625 226.199219 71.246094 225.015625 71.128906 223.824219 C 71.011719 222.636719 70.921875 221.449219 70.863281 220.253906 C 70.804688 219.0625 70.777344 217.871094 70.777344 216.675781 C 70.777344 215.480469 70.804688 214.289062 70.863281 213.097656 C 70.921875 211.902344 71.011719 210.714844 71.128906 209.523438 C 71.246094 208.335938 71.390625 207.152344 71.566406 205.972656 C 71.742188 204.789062 71.945312 203.613281 72.179688 202.445312 C 72.410156 201.273438 72.671875 200.109375 72.960938 198.949219 C 73.253906 197.792969 73.570312 196.640625 73.917969 195.5 C 74.265625 194.355469 74.640625 193.222656 75.039062 192.101562 C 75.441406 190.976562 75.871094 189.863281 76.328125 188.757812 C 76.785156 187.65625 77.269531 186.566406 77.78125 185.484375 C 78.289062 184.40625 78.828125 183.339844 79.390625 182.289062 C 79.953125 181.234375 80.542969 180.195312 81.15625 179.171875 C 81.769531 178.148438 82.40625 177.140625 83.070312 176.148438 C 83.734375 175.15625 84.421875 174.179688 85.132812 173.21875 C 85.84375 172.261719 86.578125 171.320312 87.335938 170.398438 C 88.09375 169.472656 88.871094 168.570312 89.675781 167.6875 C 90.476562 166.800781 91.296875 165.9375 92.144531 165.09375 C 92.988281 164.25 93.851562 163.425781 94.734375 162.625 C 95.621094 161.820312 96.523438 161.042969 97.449219 160.285156 C 98.371094 159.527344 99.3125 158.792969 100.269531 158.082031 C 101.230469 157.371094 102.203125 156.683594 103.199219 156.019531 C 104.191406 155.355469 105.199219 154.71875 106.222656 154.105469 C 107.246094 153.492188 108.285156 152.902344 109.335938 152.339844 C 110.390625 151.777344 111.457031 151.242188 112.535156 150.730469 C 113.613281 150.21875 114.707031 149.734375 115.808594 149.277344 C 116.914062 148.824219 118.027344 148.394531 119.148438 147.992188 C 120.273438 147.589844 121.40625 147.214844 122.550781 146.867188 C 123.691406 146.519531 124.84375 146.203125 126 145.914062 C 127.160156 145.621094 128.324219 145.359375 129.492188 145.128906 C 130.664062 144.894531 131.839844 144.691406 133.023438 144.515625 C 134.203125 144.339844 135.386719 144.195312 136.574219 144.078125 C 137.761719 143.960938 138.953125 143.871094 140.144531 143.8125 C 141.339844 143.753906 142.53125 143.726562 143.726562 143.726562 C 144.917969 143.726562 146.113281 143.753906 147.304688 143.8125 C 148.496094 143.871094 149.6875 143.960938 150.875 144.078125 C 152.0625 144.195312 153.25 144.339844 154.429688 144.515625 C 155.609375 144.691406 156.785156 144.894531 157.957031 145.128906 C 159.128906 145.359375 160.292969 145.621094 161.449219 145.914062 C 162.609375 146.203125 163.757812 146.519531 164.902344 146.867188 C 166.042969 147.214844 167.175781 147.589844 168.300781 147.992188 C 169.425781 148.394531 170.539062 148.824219 171.640625 149.277344 C 172.746094 149.734375 173.835938 150.21875 174.914062 150.730469 C 175.996094 151.242188 177.0625 151.777344 178.113281 152.339844 C 179.167969 152.902344 180.207031 153.492188 181.230469 154.105469 C 182.253906 154.71875 183.261719 155.355469 184.253906 156.019531 C 185.246094 156.683594 186.222656 157.371094 187.179688 158.082031 C 188.140625 158.792969 189.082031 159.527344 190.003906 160.285156 C 190.925781 161.042969 191.832031 161.820312 192.714844 162.625 C 193.601562 163.425781 194.464844 164.25 195.308594 165.09375 C 196.152344 165.9375 196.976562 166.800781 197.777344 167.6875 C 198.578125 168.570312 199.359375 169.472656 200.117188 170.398438 C 200.875 171.320312 201.609375 172.261719 202.320312 173.21875 C 203.03125 174.179688 203.71875 175.15625 204.378906 176.148438 C 205.042969 177.140625 205.683594 178.148438 206.296875 179.171875 C 206.910156 180.195312 207.5 181.234375 208.0625 182.289062 C 208.625 183.339844 209.160156 184.40625 209.671875 185.484375 C 210.179688 186.566406 210.664062 187.65625 211.121094 188.757812 C 211.578125 189.863281 212.007812 190.976562 212.410156 192.097656 C 212.8125 193.222656 213.1875 194.355469 213.535156 195.5 C 213.878906 196.640625 214.199219 197.792969 214.488281 198.949219 C 214.777344 200.109375 215.039062 201.273438 215.273438 202.445312 C 215.507812 203.613281 215.710938 204.789062 215.886719 205.972656 C 216.0625 207.152344 216.207031 208.335938 216.324219 209.523438 C 216.441406 210.714844 216.527344 211.902344 216.585938 213.097656 C 216.644531 214.289062 216.675781 215.480469 216.675781 216.675781 C 216.675781 217.871094 216.644531 219.0625 216.585938 220.253906 C 216.527344 221.449219 216.441406 222.636719 216.324219 223.824219 C 216.207031 225.015625 216.0625 226.199219 215.886719 227.378906 C 215.710938 228.558594 215.507812 229.734375 215.273438 230.90625 C 215.039062 232.078125 214.777344 233.242188 214.488281 234.402344 C 214.199219 235.558594 213.878906 236.710938 213.535156 237.851562 C 213.1875 238.992188 212.8125 240.128906 212.410156 241.25 C 212.007812 242.375 211.578125 243.488281 211.121094 244.59375 C 210.664062 245.695312 210.179688 246.785156 209.671875 247.867188 C 209.160156 248.945312 208.625 250.011719 208.0625 251.0625 C 207.5 252.117188 206.910156 253.15625 206.296875 254.179688 C 205.683594 255.203125 205.042969 256.210938 204.378906 257.203125 C 203.71875 258.195312 203.03125 259.171875 202.320312 260.132812 C 201.609375 261.089844 200.875 262.03125 200.117188 262.953125 C 199.359375 263.875 198.578125 264.78125 197.777344 265.664062 C 196.976562 266.550781 196.152344 267.414062 195.308594 268.257812 C 194.464844 269.101562 193.601562 269.925781 192.714844 270.726562 C 191.832031 271.527344 190.925781 272.308594 190.003906 273.066406 C 189.082031 273.824219 188.140625 274.558594 187.179688 275.269531 C 186.222656 275.980469 185.246094 276.667969 184.253906 277.332031 C 183.261719 277.992188 182.253906 278.632812 181.230469 279.246094 C 180.207031 279.859375 179.167969 280.449219 178.113281 281.011719 C 177.0625 281.574219 175.996094 282.109375 174.914062 282.621094 C 173.835938 283.132812 172.746094 283.613281 171.640625 284.070312 C 170.539062 284.527344 169.425781 284.957031 168.300781 285.359375 C 167.175781 285.761719 166.042969 286.136719 164.902344 286.484375 C 163.757812 286.828125 162.609375 287.148438 161.449219 287.4375 C 160.292969 287.730469 159.128906 287.988281 157.957031 288.222656 C 156.785156 288.457031 155.609375 288.660156 154.429688 288.835938 C 153.25 289.011719 152.0625 289.15625 150.875 289.273438 C 149.6875 289.390625 148.496094 289.476562 147.304688 289.535156 C 146.113281 289.59375 144.917969 289.625 143.726562 289.625 Z M 143.726562 289.625 " fill-opacity="1" fill-rule="nonzero"/></g><g clip-path="url(#e1022ca8f8)"><path fill="#276d5a" d="M 318.804688 114.546875 L 260.445312 114.546875 C 259.488281 114.546875 258.539062 114.640625 257.597656 114.828125 C 256.660156 115.015625 255.746094 115.289062 254.859375 115.65625 C 253.976562 116.023438 253.136719 116.472656 252.339844 117.003906 C 251.542969 117.539062 250.804688 118.140625 250.128906 118.820312 C 249.449219 119.496094 248.847656 120.234375 248.3125 121.03125 C 247.78125 121.828125 247.332031 122.667969 246.964844 123.554688 C 246.597656 124.4375 246.320312 125.351562 246.136719 126.289062 C 245.949219 127.230469 245.855469 128.179688 245.855469 129.136719 C 245.855469 130.09375 245.949219 131.042969 246.136719 131.984375 C 246.320312 132.921875 246.597656 133.835938 246.964844 134.71875 C 247.332031 135.605469 247.78125 136.445312 248.3125 137.242188 C 248.847656 138.039062 249.449219 138.777344 250.128906 139.453125 C 250.804688 140.128906 251.542969 140.734375 252.339844 141.265625 C 253.136719 141.800781 253.976562 142.25 254.859375 142.617188 C 255.746094 142.980469 256.660156 143.257812 257.597656 143.445312 C 258.539062 143.632812 259.488281 143.726562 260.445312 143.726562 L 318.804688 143.726562 C 319.761719 143.726562 320.710938 143.632812 321.648438 143.445312 C 322.589844 143.257812 323.503906 142.980469 324.386719 142.617188 C 325.273438 142.25 326.113281 141.800781 326.910156 141.265625 C 327.707031 140.734375 328.441406 140.128906 329.121094 139.453125 C 329.796875 138.777344 330.402344 138.039062 330.933594 137.242188 C 331.46875 136.445312 331.917969 135.605469 332.28125 134.71875 C 332.648438 133.835938 332.925781 132.921875 333.113281 131.984375 C 333.300781 131.042969 333.394531 130.09375 333.394531 129.136719 C 333.394531 128.179688 333.300781 127.230469 333.113281 126.289062 C 332.925781 125.351562 332.648438 124.4375 332.28125 123.554688 C 331.917969 122.667969 331.46875 121.828125 330.933594 121.03125 C 330.402344 120.234375 329.796875 119.496094 329.121094 118.820312 C 328.441406 118.140625 327.707031 117.539062 326.910156 117.003906 C 326.113281 116.472656 325.273438 116.023438 324.386719 115.65625 C 323.503906 115.289062 322.589844 115.015625 321.648438 114.828125 C 320.710938 114.640625 319.761719 114.546875 318.804688 114.546875 Z M 318.804688 114.546875 " fill-opacity="1" fill-rule="nonzero"/></g><g clip-path="url(#1967053f6d)"><path fill="#276d5a" d="M 56.1875 85.367188 L 318.804688 85.367188 C 319.761719 85.367188 320.710938 85.273438 321.648438 85.085938 C 322.589844 84.898438 323.503906 84.621094 324.386719 84.257812 C 325.273438 83.890625 326.113281 83.441406 326.910156 82.90625 C 327.707031 82.375 328.441406 81.769531 329.121094 81.09375 C 329.796875 80.417969 330.402344 79.679688 330.933594 78.882812 C 331.46875 78.085938 331.917969 77.246094 332.28125 76.359375 C 332.648438 75.476562 332.925781 74.5625 333.113281 73.625 C 333.300781 72.683594 333.394531 71.734375 333.394531 70.777344 C 333.394531 69.820312 333.300781 68.871094 333.113281 67.929688 C 332.925781 66.992188 332.648438 66.078125 332.28125 65.195312 C 331.917969 64.308594 331.46875 63.46875 330.933594 62.671875 C 330.402344 61.875 329.796875 61.136719 329.121094 60.460938 C 328.441406 59.78125 327.707031 59.179688 326.910156 58.644531 C 326.113281 58.113281 325.273438 57.664062 324.386719 57.296875 C 323.503906 56.929688 322.589844 56.65625 321.648438 56.46875 C 320.710938 56.28125 319.761719 56.1875 318.804688 56.1875 L 56.1875 56.1875 C 55.230469 56.1875 54.28125 56.28125 53.339844 56.46875 C 52.402344 56.65625 51.488281 56.929688 50.601562 57.296875 C 49.71875 57.664062 48.878906 58.113281 48.082031 58.644531 C 47.285156 59.179688 46.546875 59.78125 45.871094 60.460938 C 45.191406 61.136719 44.589844 61.875 44.054688 62.671875 C 43.523438 63.46875 43.074219 64.308594 42.707031 65.195312 C 42.339844 66.078125 42.0625 66.992188 41.878906 67.929688 C 41.691406 68.871094 41.597656 69.820312 41.597656 70.777344 C 41.597656 71.734375 41.691406 72.683594 41.878906 73.625 C 42.0625 74.5625 42.339844 75.476562 42.707031 76.359375 C 43.074219 77.246094 43.523438 78.085938 44.054688 78.882812 C 44.589844 79.679688 45.191406 80.417969 45.871094 81.09375 C 46.546875 81.769531 47.285156 82.375 48.082031 82.90625 C 48.878906 83.441406 49.71875 83.890625 50.601562 84.257812 C 51.488281 84.621094 52.402344 84.898438 53.339844 85.085938 C 54.28125 85.273438 55.230469 85.367188 56.1875 85.367188 Z M 56.1875 85.367188 " fill-opacity="1" fill-rule="nonzero"/></g><g clip-path="url(#a63cc81284)"><path fill="#276d5a" d="M 318.804688 172.90625 L 289.625 172.90625 C 288.667969 172.90625 287.71875 173 286.777344 173.1875 C 285.839844 173.375 284.925781 173.648438 284.039062 174.015625 C 283.15625 174.382812 282.316406 174.832031 281.519531 175.363281 C 280.722656 175.898438 279.984375 176.5 279.308594 177.179688 C 278.628906 177.855469 278.023438 178.59375 277.492188 179.390625 C 276.960938 180.1875 276.511719 181.027344 276.144531 181.914062 C 275.777344 182.796875 275.5 183.710938 275.316406 184.648438 C 275.128906 185.589844 275.035156 186.539062 275.035156 187.496094 C 275.035156 188.453125 275.128906 189.402344 275.316406 190.34375 C 275.5 191.28125 275.777344 192.195312 276.144531 193.078125 C 276.511719 193.964844 276.960938 194.804688 277.492188 195.601562 C 278.023438 196.398438 278.628906 197.136719 279.308594 197.8125 C 279.984375 198.488281 280.722656 199.09375 281.519531 199.625 C 282.316406 200.160156 283.15625 200.609375 284.039062 200.976562 C 284.925781 201.339844 285.839844 201.617188 286.777344 201.804688 C 287.71875 201.992188 288.667969 202.085938 289.625 202.085938 L 318.804688 202.085938 C 319.761719 202.085938 320.710938 201.992188 321.648438 201.804688 C 322.589844 201.617188 323.503906 201.339844 324.386719 200.976562 C 325.273438 200.609375 326.113281 200.160156 326.910156 199.625 C 327.707031 199.09375 328.441406 198.488281 329.121094 197.8125 C 329.796875 197.136719 330.402344 196.398438 330.933594 195.601562 C 331.46875 194.804688 331.917969 193.964844 332.28125 193.078125 C 332.648438 192.195312 332.925781 191.28125 333.113281 190.34375 C 333.300781 189.402344 333.394531 188.453125 333.394531 187.496094 C 333.394531 186.539062 333.300781 185.589844 333.113281 184.648438 C 332.925781 183.710938 332.648438 182.796875 332.28125 181.914062 C 331.917969 181.027344 331.46875 180.1875 330.933594 179.390625 C 330.402344 178.59375 329.796875 177.855469 329.121094 177.179688 C 328.441406 176.5 327.707031 175.898438 326.910156 175.363281 C 326.113281 174.832031 325.273438 174.382812 324.386719 174.015625 C 323.503906 173.648438 322.589844 173.375 321.648438 173.1875 C 320.710938 173 319.761719 172.90625 318.804688 172.90625 Z M 318.804688 172.90625 " fill-opacity="1" fill-rule="nonzero"/></g><g clip-path="url(#28f9bfed09)"><path fill="#276d5a" d="M 318.804688 231.265625 L 289.625 231.265625 C 288.667969 231.265625 287.71875 231.359375 286.777344 231.546875 C 285.839844 231.734375 284.925781 232.007812 284.039062 232.375 C 283.15625 232.742188 282.316406 233.191406 281.519531 233.722656 C 280.722656 234.257812 279.984375 234.859375 279.308594 235.539062 C 278.628906 236.214844 278.023438 236.953125 277.492188 237.75 C 276.960938 238.546875 276.511719 239.386719 276.144531 240.273438 C 275.777344 241.15625 275.5 242.070312 275.316406 243.007812 C 275.128906 243.949219 275.035156 244.898438 275.035156 245.855469 C 275.035156 246.8125 275.128906 247.761719 275.316406 248.703125 C 275.5 249.640625 275.777344 250.554688 276.144531 251.4375 C 276.511719 252.324219 276.960938 253.164062 277.492188 253.960938 C 278.023438 254.757812 278.628906 255.496094 279.308594 256.171875 C 279.984375 256.847656 280.722656 257.453125 281.519531 257.984375 C 282.316406 258.519531 283.15625 258.96875 284.039062 259.335938 C 284.925781 259.699219 285.839844 259.976562 286.777344 260.164062 C 287.71875 260.351562 288.667969 260.445312 289.625 260.445312 L 318.804688 260.445312 C 319.761719 260.445312 320.710938 260.351562 321.648438 260.164062 C 322.589844 259.976562 323.503906 259.699219 324.386719 259.335938 C 325.273438 258.96875 326.113281 258.519531 326.910156 257.984375 C 327.707031 257.453125 328.441406 256.847656 329.121094 256.171875 C 329.796875 255.496094 330.402344 254.757812 330.933594 253.960938 C 331.46875 253.164062 331.917969 252.324219 332.28125 251.4375 C 332.648438 250.554688 332.925781 249.640625 333.113281 248.703125 C 333.300781 247.761719 333.394531 246.8125 333.394531 245.855469 C 333.394531 244.898438 333.300781 243.949219 333.113281 243.007812 C 332.925781 242.070312 332.648438 241.15625 332.28125 240.273438 C 331.917969 239.386719 331.46875 238.546875 330.933594 237.75 C 330.402344 236.953125 329.796875 236.214844 329.121094 235.539062 C 328.441406 234.859375 327.707031 234.257812 326.910156 233.722656 C 326.113281 233.191406 325.273438 232.742188 324.386719 232.375 C 323.503906 232.007812 322.589844 231.734375 321.648438 231.546875 C 320.710938 231.359375 319.761719 231.265625 318.804688 231.265625 Z M 318.804688 231.265625 " fill-opacity="1" fill-rule="nonzero"/></g><g clip-path="url(#77441b2d7c)"><path fill="#276d5a" d="M 318.804688 289.625 L 260.445312 289.625 C 259.488281 289.625 258.539062 289.71875 257.597656 289.90625 C 256.660156 290.09375 255.746094 290.367188 254.859375 290.734375 C 253.976562 291.101562 253.136719 291.550781 252.339844 292.082031 C 251.542969 292.617188 250.804688 293.21875 250.128906 293.898438 C 249.449219 294.574219 248.847656 295.3125 248.3125 296.109375 C 247.78125 296.90625 247.332031 297.746094 246.964844 298.632812 C 246.597656 299.515625 246.320312 300.429688 246.136719 301.367188 C 245.949219 302.308594 245.855469 303.257812 245.855469 304.214844 C 245.855469 305.171875 245.949219 306.121094 246.136719 307.0625 C 246.320312 308 246.597656 308.914062 246.964844 309.796875 C 247.332031 310.683594 247.78125 311.523438 248.3125 312.320312 C 248.847656 313.117188 249.449219 313.855469 250.128906 314.53125 C 250.804688 315.207031 251.542969 315.8125 252.339844 316.34375 C 253.136719 316.878906 253.976562 317.328125 254.859375 317.695312 C 255.746094 318.058594 256.660156 318.335938 257.597656 318.523438 C 258.539062 318.710938 259.488281 318.804688 260.445312 318.804688 L 318.804688 318.804688 C 319.761719 318.804688 320.710938 318.710938 321.648438 318.523438 C 322.589844 318.335938 323.503906 318.058594 324.386719 317.695312 C 325.273438 317.328125 326.113281 316.878906 326.910156 316.34375 C 327.707031 315.8125 328.441406 315.207031 329.121094 314.53125 C 329.796875 313.855469 330.402344 313.117188 330.933594 312.320312 C 331.46875 311.523438 331.917969 310.683594 332.28125 309.796875 C 332.648438 308.914062 332.925781 308 333.113281 307.0625 C 333.300781 306.121094 333.394531 305.171875 333.394531 304.214844 C 333.394531 303.257812 333.300781 302.308594 333.113281 301.367188 C 332.925781 300.429688 332.648438 299.515625 332.28125 298.632812 C 331.917969 297.746094 331.46875 296.90625 330.933594 296.109375 C 330.402344 295.3125 329.796875 294.574219 329.121094 293.898438 C 328.441406 293.21875 327.707031 292.617188 326.910156 292.082031 C 326.113281 291.550781 325.273438 291.101562 324.386719 290.734375 C 323.503906 290.367188 322.589844 290.09375 321.648438 289.90625 C 320.710938 289.71875 319.761719 289.625 318.804688 289.625 Z M 318.804688 289.625 " fill-opacity="1" fill-rule="nonzero"/></g><path fill="#276d5a" d="M 143.726562 172.90625 C 142.769531 172.90625 141.820312 173 140.878906 173.1875 C 139.941406 173.375 139.027344 173.648438 138.140625 174.015625 C 137.257812 174.382812 136.417969 174.832031 135.621094 175.363281 C 134.824219 175.898438 134.085938 176.5 133.410156 177.179688 C 132.730469 177.855469 132.128906 178.59375 131.59375 179.390625 C 131.0625 180.1875 130.613281 181.027344 130.246094 181.914062 C 129.878906 182.796875 129.601562 183.710938 129.417969 184.648438 C 129.230469 185.589844 129.136719 186.539062 129.136719 187.496094 L 129.136719 210.695312 L 118.777344 221.050781 C 118.394531 221.378906 118.035156 221.722656 117.6875 222.085938 C 117.34375 222.449219 117.015625 222.832031 116.710938 223.226562 C 116.40625 223.625 116.121094 224.035156 115.855469 224.464844 C 115.59375 224.890625 115.351562 225.328125 115.132812 225.78125 C 114.914062 226.230469 114.722656 226.691406 114.550781 227.164062 C 114.378906 227.636719 114.234375 228.113281 114.113281 228.601562 C 113.992188 229.085938 113.894531 229.578125 113.824219 230.074219 C 113.753906 230.570312 113.707031 231.070312 113.6875 231.570312 C 113.667969 232.070312 113.675781 232.574219 113.707031 233.074219 C 113.738281 233.574219 113.796875 234.070312 113.882812 234.566406 C 113.964844 235.058594 114.074219 235.546875 114.207031 236.03125 C 114.339844 236.515625 114.5 236.988281 114.683594 237.457031 C 114.867188 237.921875 115.070312 238.378906 115.300781 238.824219 C 115.53125 239.269531 115.785156 239.703125 116.058594 240.121094 C 116.332031 240.542969 116.628906 240.945312 116.945312 241.335938 C 117.261719 241.722656 117.597656 242.097656 117.949219 242.449219 C 118.304688 242.804688 118.675781 243.140625 119.066406 243.457031 C 119.457031 243.773438 119.859375 244.066406 120.277344 244.34375 C 120.699219 244.617188 121.132812 244.871094 121.578125 245.097656 C 122.023438 245.328125 122.476562 245.535156 122.945312 245.71875 C 123.410156 245.902344 123.886719 246.058594 124.371094 246.195312 C 124.851562 246.328125 125.34375 246.4375 125.835938 246.519531 C 126.332031 246.605469 126.828125 246.660156 127.328125 246.695312 C 127.828125 246.726562 128.328125 246.730469 128.832031 246.714844 C 129.332031 246.695312 129.828125 246.648438 130.328125 246.578125 C 130.824219 246.507812 131.3125 246.410156 131.800781 246.289062 C 132.285156 246.167969 132.765625 246.023438 133.238281 245.851562 C 133.707031 245.679688 134.171875 245.484375 134.621094 245.265625 C 135.074219 245.050781 135.511719 244.808594 135.9375 244.542969 C 136.363281 244.28125 136.777344 243.996094 137.171875 243.691406 C 137.570312 243.382812 137.949219 243.058594 138.3125 242.714844 C 138.679688 242.367188 139.023438 242.003906 139.347656 241.625 L 153.9375 227.035156 C 155.332031 225.667969 156.40625 224.089844 157.164062 222.292969 C 157.925781 220.496094 158.308594 218.625 158.316406 216.675781 L 158.316406 187.496094 C 158.316406 186.539062 158.222656 185.589844 158.035156 184.648438 C 157.847656 183.710938 157.570312 182.796875 157.203125 181.914062 C 156.839844 181.027344 156.390625 180.1875 155.855469 179.390625 C 155.324219 178.59375 154.71875 177.855469 154.042969 177.179688 C 153.363281 176.5 152.628906 175.898438 151.832031 175.363281 C 151.035156 174.832031 150.195312 174.382812 149.308594 174.015625 C 148.425781 173.648438 147.511719 173.375 146.570312 173.1875 C 145.632812 173 144.683594 172.90625 143.726562 172.90625 Z M 143.726562 172.90625 " fill-opacity="1" fill-rule="nonzero"/><g clip-path="url(#b0dd36d65c)"><path fill="#276d5a" d="M 143.726562 114.546875 C 142.054688 114.546875 140.382812 114.585938 138.714844 114.667969 C 137.046875 114.75 135.378906 114.875 133.714844 115.039062 C 132.050781 115.203125 130.394531 115.40625 128.742188 115.652344 C 127.085938 115.898438 125.441406 116.183594 123.800781 116.507812 C 122.164062 116.835938 120.53125 117.199219 118.910156 117.605469 C 117.289062 118.011719 115.679688 118.460938 114.078125 118.945312 C 112.480469 119.429688 110.894531 119.953125 109.320312 120.515625 C 107.746094 121.078125 106.1875 121.679688 104.644531 122.320312 C 103.097656 122.960938 101.570312 123.636719 100.058594 124.351562 C 98.550781 125.066406 97.054688 125.816406 95.582031 126.605469 C 94.109375 127.394531 92.65625 128.21875 91.222656 129.078125 C 89.789062 129.9375 88.375 130.828125 86.984375 131.757812 C 85.597656 132.6875 84.230469 133.648438 82.886719 134.644531 C 81.546875 135.640625 80.226562 136.667969 78.9375 137.730469 C 77.644531 138.789062 76.378906 139.878906 75.140625 141.003906 C 73.902344 142.125 72.691406 143.277344 71.507812 144.460938 C 70.328125 145.640625 69.175781 146.851562 68.054688 148.089844 C 66.929688 149.328125 65.839844 150.59375 64.777344 151.886719 C 63.71875 153.175781 62.691406 154.496094 61.695312 155.835938 C 60.699219 157.179688 59.738281 158.546875 58.808594 159.9375 C 57.878906 161.324219 56.984375 162.738281 56.125 164.171875 C 55.269531 165.605469 54.445312 167.058594 53.65625 168.53125 C 52.867188 170.007812 52.117188 171.5 51.402344 173.007812 C 50.6875 174.519531 50.011719 176.046875 49.371094 177.59375 C 48.730469 179.136719 48.128906 180.695312 47.566406 182.269531 C 47.003906 183.84375 46.480469 185.429688 45.996094 187.027344 C 45.507812 188.628906 45.0625 190.238281 44.65625 191.859375 C 44.25 193.480469 43.886719 195.113281 43.558594 196.75 C 43.234375 198.390625 42.949219 200.035156 42.703125 201.691406 C 42.457031 203.34375 42.253906 205 42.089844 206.664062 C 41.925781 208.328125 41.800781 209.996094 41.71875 211.664062 C 41.636719 213.332031 41.597656 215.003906 41.597656 216.675781 C 41.597656 218.347656 41.636719 220.015625 41.71875 221.6875 C 41.800781 223.355469 41.925781 225.023438 42.089844 226.6875 C 42.253906 228.347656 42.457031 230.007812 42.703125 231.660156 C 42.949219 233.3125 43.234375 234.960938 43.558594 236.601562 C 43.886719 238.238281 44.25 239.871094 44.65625 241.492188 C 45.0625 243.113281 45.507812 244.722656 45.996094 246.320312 C 46.480469 247.921875 47.003906 249.507812 47.566406 251.082031 C 48.128906 252.65625 48.730469 254.214844 49.371094 255.757812 C 50.011719 257.300781 50.6875 258.832031 51.402344 260.339844 C 52.117188 261.851562 52.867188 263.34375 53.65625 264.820312 C 54.445312 266.292969 55.269531 267.746094 56.125 269.179688 C 56.984375 270.613281 57.878906 272.027344 58.808594 273.414062 C 59.738281 274.804688 60.699219 276.171875 61.695312 277.511719 C 62.691406 278.855469 63.71875 280.171875 64.777344 281.464844 C 65.839844 282.757812 66.929688 284.023438 68.054688 285.261719 C 69.175781 286.5 70.328125 287.710938 71.507812 288.890625 C 72.691406 290.074219 73.902344 291.226562 75.140625 292.347656 C 76.378906 293.46875 77.644531 294.5625 78.9375 295.621094 C 80.226562 296.683594 81.546875 297.710938 82.886719 298.707031 C 84.230469 299.703125 85.597656 300.664062 86.984375 301.59375 C 88.375 302.519531 89.789062 303.414062 91.222656 304.273438 C 92.65625 305.132812 94.109375 305.957031 95.582031 306.746094 C 97.054688 307.53125 98.550781 308.285156 100.058594 309 C 101.570312 309.714844 103.097656 310.390625 104.644531 311.03125 C 106.1875 311.667969 107.746094 312.269531 109.320312 312.835938 C 110.894531 313.398438 112.480469 313.921875 114.078125 314.40625 C 115.679688 314.890625 117.289062 315.335938 118.910156 315.742188 C 120.53125 316.148438 122.164062 316.515625 123.800781 316.84375 C 125.441406 317.167969 127.085938 317.453125 128.742188 317.699219 C 130.394531 317.945312 132.050781 318.148438 133.714844 318.3125 C 135.378906 318.476562 137.046875 318.597656 138.714844 318.679688 C 140.382812 318.761719 142.054688 318.804688 143.726562 318.804688 C 145.398438 318.804688 147.066406 318.761719 148.738281 318.679688 C 150.40625 318.597656 152.074219 318.476562 153.734375 318.3125 C 155.398438 318.148438 157.058594 317.945312 158.710938 317.699219 C 160.363281 317.453125 162.011719 317.167969 163.648438 316.84375 C 165.289062 316.515625 166.917969 316.148438 168.542969 315.742188 C 170.164062 315.335938 171.773438 314.890625 173.371094 314.40625 C 174.972656 313.921875 176.558594 313.398438 178.132812 312.835938 C 179.707031 312.269531 181.265625 311.667969 182.808594 311.03125 C 184.351562 310.390625 185.878906 309.714844 187.390625 309 C 188.902344 308.285156 190.394531 307.53125 191.867188 306.746094 C 193.34375 305.957031 194.796875 305.132812 196.230469 304.273438 C 197.664062 303.414062 199.074219 302.519531 200.464844 301.59375 C 201.855469 300.664062 203.222656 299.703125 204.5625 298.707031 C 205.90625 297.710938 207.222656 296.683594 208.515625 295.621094 C 209.808594 294.5625 211.074219 293.46875 212.3125 292.347656 C 213.550781 291.226562 214.761719 290.074219 215.941406 288.890625 C 217.125 287.710938 218.277344 286.5 219.398438 285.261719 C 220.519531 284.023438 221.613281 282.757812 222.671875 281.464844 C 223.734375 280.171875 224.761719 278.855469 225.757812 277.511719 C 226.753906 276.171875 227.714844 274.804688 228.644531 273.414062 C 229.570312 272.027344 230.464844 270.613281 231.324219 269.179688 C 232.183594 267.746094 233.007812 266.292969 233.796875 264.820312 C 234.582031 263.34375 235.335938 261.851562 236.050781 260.339844 C 236.765625 258.832031 237.441406 257.300781 238.082031 255.757812 C 238.71875 254.214844 239.320312 252.65625 239.882812 251.082031 C 240.449219 249.507812 240.972656 247.921875 241.457031 246.320312 C 241.941406 244.722656 242.386719 243.113281 242.792969 241.492188 C 243.199219 239.871094 243.566406 238.238281 243.890625 236.601562 C 244.21875 234.960938 244.503906 233.3125 244.75 231.660156 C 244.996094 230.007812 245.199219 228.347656 245.363281 226.6875 C 245.527344 225.023438 245.648438 223.355469 245.730469 221.6875 C 245.8125 220.015625 245.855469 218.347656 245.855469 216.675781 C 245.855469 215.003906 245.8125 213.332031 245.730469 211.664062 C 245.648438 209.996094 245.527344 208.328125 245.363281 206.664062 C 245.199219 205 244.996094 203.34375 244.75 201.691406 C 244.503906 200.035156 244.21875 198.390625 243.890625 196.75 C 243.566406 195.113281 243.199219 193.480469 242.792969 191.859375 C 242.386719 190.238281 241.941406 188.628906 241.457031 187.027344 C 240.972656 185.429688 240.449219 183.84375 239.882812 182.269531 C 239.320312 180.695312 238.71875 179.136719 238.082031 177.59375 C 237.441406 176.046875 236.765625 174.519531 236.050781 173.007812 C 235.335938 171.5 234.582031 170.007812 233.796875 168.53125 C 233.007812 167.058594 232.183594 165.605469 231.324219 164.171875 C 230.464844 162.738281 229.570312 161.324219 228.644531 159.9375 C 227.714844 158.546875 226.753906 157.179688 225.757812 155.835938 C 224.761719 154.496094 223.734375 153.175781 222.671875 151.886719 C 221.613281 150.59375 220.519531 149.328125 219.398438 148.089844 C 218.277344 146.851562 217.125 145.640625 215.941406 144.460938 C 214.761719 143.277344 213.550781 142.125 212.3125 141.003906 C 211.074219 139.878906 209.808594 138.789062 208.515625 137.730469 C 207.222656 136.667969 205.90625 135.640625 204.5625 134.644531 C 203.222656 133.648438 201.855469 132.6875 200.464844 131.757812 C 199.074219 130.828125 197.664062 129.9375 196.230469 129.078125 C 194.796875 128.21875 193.34375 127.394531 191.867188 126.605469 C 190.394531 125.816406 188.902344 125.066406 187.390625 124.351562 C 185.878906 123.636719 184.351562 122.960938 182.808594 122.320312 C 181.265625 121.679688 179.707031 121.078125 178.132812 120.515625 C 176.558594 119.953125 174.972656 119.429688 173.371094 118.945312 C 171.773438 118.460938 170.164062 118.011719 168.542969 117.605469 C 166.917969 117.199219 165.289062 116.835938 163.648438 116.507812 C 162.011719 116.183594 160.363281 115.898438 158.710938 115.652344 C 157.058594 115.40625 155.398438 115.203125 153.734375 115.039062 C 152.074219 114.875 150.40625 114.75 148.738281 114.667969 C 147.066406 114.585938 145.398438 114.546875 143.726562 114.546875 Z M 143.726562 289.625 C 142.53125 289.625 141.339844 289.59375 140.144531 289.535156 C 138.953125 289.476562 137.761719 289.390625 136.574219 289.273438 C 135.386719 289.15625 134.203125 289.011719 133.023438 288.835938 C 131.839844 288.660156 130.664062 288.457031 129.492188 288.222656 C 128.324219 287.988281 127.160156 287.730469 126 287.4375 C 124.84375 287.148438 123.691406 286.828125 122.550781 286.484375 C 121.40625 286.136719 120.273438 285.761719 119.148438 285.359375 C 118.027344 284.957031 116.914062 284.527344 115.808594 284.070312 C 114.707031 283.613281 113.613281 283.132812 112.535156 282.621094 C 111.457031 282.109375 110.390625 281.574219 109.335938 281.011719 C 108.285156 280.449219 107.246094 279.859375 106.222656 279.246094 C 105.199219 278.632812 104.191406 277.992188 103.199219 277.332031 C 102.203125 276.667969 101.230469 275.980469 100.269531 275.269531 C 99.3125 274.558594 98.371094 273.824219 97.449219 273.066406 C 96.523438 272.308594 95.621094 271.527344 94.734375 270.726562 C 93.851562 269.925781 92.988281 269.101562 92.144531 268.257812 C 91.296875 267.414062 90.476562 266.550781 89.675781 265.664062 C 88.871094 264.78125 88.09375 263.875 87.335938 262.953125 C 86.578125 262.03125 85.84375 261.089844 85.132812 260.132812 C 84.421875 259.171875 83.734375 258.195312 83.070312 257.203125 C 82.40625 256.210938 81.769531 255.203125 81.15625 254.179688 C 80.542969 253.15625 79.953125 252.117188 79.390625 251.0625 C 78.828125 250.011719 78.289062 248.945312 77.78125 247.863281 C 77.269531 246.785156 76.785156 245.695312 76.328125 244.59375 C 75.871094 243.488281 75.441406 242.375 75.039062 241.25 C 74.640625 240.128906 74.265625 238.992188 73.917969 237.851562 C 73.570312 236.710938 73.253906 235.558594 72.960938 234.402344 C 72.671875 233.242188 72.410156 232.078125 72.179688 230.90625 C 71.945312 229.734375 71.742188 228.558594 71.566406 227.378906 C 71.390625 226.199219 71.246094 225.015625 71.128906 223.824219 C 71.011719 222.636719 70.921875 221.449219 70.863281 220.253906 C 70.804688 219.0625 70.777344 217.871094 70.777344 216.675781 C 70.777344 215.480469 70.804688 214.289062 70.863281 213.097656 C 70.921875 211.902344 71.011719 210.714844 71.128906 209.523438 C 71.246094 208.335938 71.390625 207.152344 71.566406 205.972656 C 71.742188 204.789062 71.945312 203.613281 72.179688 202.445312 C 72.410156 201.273438 72.671875 200.109375 72.960938 198.949219 C 73.253906 197.792969 73.570312 196.640625 73.917969 195.5 C 74.265625 194.355469 74.640625 193.222656 75.039062 192.101562 C 75.441406 190.976562 75.871094 189.863281 76.328125 188.757812 C 76.785156 187.65625 77.269531 186.566406 77.78125 185.484375 C 78.289062 184.40625 78.828125 183.339844 79.390625 182.289062 C 79.953125 181.234375 80.542969 180.195312 81.15625 179.171875 C 81.769531 178.148438 82.40625 177.140625 83.070312 176.148438 C 83.734375 175.15625 84.421875 174.179688 85.132812 173.21875 C 85.84375 172.261719 86.578125 171.320312 87.335938 170.398438 C 88.09375 169.472656 88.871094 168.570312 89.675781 167.6875 C 90.476562 166.800781 91.296875 165.9375 92.144531 165.09375 C 92.988281 164.25 93.851562 163.425781 94.734375 162.625 C 95.621094 161.820312 96.523438 161.042969 97.449219 160.285156 C 98.371094 159.527344 99.3125 158.792969 100.269531 158.082031 C 101.230469 157.371094 102.203125 156.683594 103.199219 156.019531 C 104.191406 155.355469 105.199219 154.71875 106.222656 154.105469 C 107.246094 153.492188 108.285156 152.902344 109.335938 152.339844 C 110.390625 151.777344 111.457031 151.242188 112.535156 150.730469 C 113.613281 150.21875 114.707031 149.734375 115.808594 149.277344 C 116.914062 148.824219 118.027344 148.394531 119.148438 147.992188 C 120.273438 147.589844 121.40625 147.214844 122.550781 146.867188 C 123.691406 146.519531 124.84375 146.203125 126 145.914062 C 127.160156 145.621094 128.324219 145.359375 129.492188 145.128906 C 130.664062 144.894531 131.839844 144.691406 133.023438 144.515625 C 134.203125 144.339844 135.386719 144.195312 136.574219 144.078125 C 137.761719 143.960938 138.953125 143.871094 140.144531 143.8125 C 141.339844 143.753906 142.53125 143.726562 143.726562 143.726562 C 144.917969 143.726562 146.113281 143.753906 147.304688 143.8125 C 148.496094 143.871094 149.6875 143.960938 150.875 144.078125 C 152.0625 144.195312 153.25 144.339844 154.429688 144.515625 C 155.609375 144.691406 156.785156 144.894531 157.957031 145.128906 C 159.128906 145.359375 160.292969 145.621094 161.449219 145.914062 C 162.609375 146.203125 163.757812 146.519531 164.902344 146.867188 C 166.042969 147.214844 167.175781 147.589844 168.300781 147.992188 C 169.425781 148.394531 170.539062 148.824219 171.640625 149.277344 C 172.746094 149.734375 173.835938 150.21875 174.914062 150.730469 C 175.996094 151.242188 177.0625 151.777344 178.113281 152.339844 C 179.167969 152.902344 180.207031 153.492188 181.230469 154.105469 C 182.253906 154.71875 183.261719 155.355469 184.253906 156.019531 C 185.246094 156.683594 186.222656 157.371094 187.179688 158.082031 C 188.140625 158.792969 189.082031 159.527344 190.003906 160.285156 C 190.925781 161.042969 191.832031 161.820312 192.714844 162.625 C 193.601562 163.425781 194.464844 164.25 195.308594 165.09375 C 196.152344 165.9375 196.976562 166.800781 197.777344 167.6875 C 198.578125 168.570312 199.359375 169.472656 200.117188 170.398438 C 200.875 171.320312 201.609375 172.261719 202.320312 173.21875 C 203.03125 174.179688 203.71875 175.15625 204.378906 176.148438 C 205.042969 177.140625 205.683594 178.148438 206.296875 179.171875 C 206.910156 180.195312 207.5 181.234375 208.0625 182.289062 C 208.625 183.339844 209.160156 184.40625 209.671875 185.484375 C 210.179688 186.566406 210.664062 187.65625 211.121094 188.757812 C 211.578125 189.863281 212.007812 190.976562 212.410156 192.097656 C 212.8125 193.222656 213.1875 194.355469 213.535156 195.5 C 213.878906 196.640625 214.199219 197.792969 214.488281 198.949219 C 214.777344 200.109375 215.039062 201.273438 215.273438 202.445312 C 215.507812 203.613281 215.710938 204.789062 215.886719 205.972656 C 216.0625 207.152344 216.207031 208.335938 216.324219 209.523438 C 216.441406 210.714844 216.527344 211.902344 216.585938 213.097656 C 216.644531 214.289062 216.675781 215.480469 216.675781 216.675781 C 216.675781 217.871094 216.644531 219.0625 216.585938 220.253906 C 216.527344 221.449219 216.441406 222.636719 216.324219 223.824219 C 216.207031 225.015625 216.0625 226.199219 215.886719 227.378906 C 215.710938 228.558594 215.507812 229.734375 215.273438 230.90625 C 215.039062 232.078125 214.777344 233.242188 214.488281 234.402344 C 214.199219 235.558594 213.878906 236.710938 213.535156 237.851562 C 213.1875 238.992188 212.8125 240.128906 212.410156 241.25 C 212.007812 242.375 211.578125 243.488281 211.121094 244.59375 C 210.664062 245.695312 210.179688 246.785156 209.671875 247.867188 C 209.160156 248.945312 208.625 250.011719 208.0625 251.0625 C 207.5 252.117188 206.910156 253.15625 206.296875 254.179688 C 205.683594 255.203125 205.042969 256.210938 204.378906 257.203125 C 203.71875 258.195312 203.03125 259.171875 202.320312 260.132812 C 201.609375 261.089844 200.875 262.03125 200.117188 262.953125 C 199.359375 263.875 198.578125 264.78125 197.777344 265.664062 C 196.976562 266.550781 196.152344 267.414062 195.308594 268.257812 C 194.464844 269.101562 193.601562 269.925781 192.714844 270.726562 C 191.832031 271.527344 190.925781 272.308594 190.003906 273.066406 C 189.082031 273.824219 188.140625 274.558594 187.179688 275.269531 C 186.222656 275.980469 185.246094 276.667969 184.253906 277.332031 C 183.261719 277.992188 182.253906 278.632812 181.230469 279.246094 C 180.207031 279.859375 179.167969 280.449219 178.113281 281.011719 C 177.0625 281.574219 175.996094 282.109375 174.914062 282.621094 C 173.835938 283.132812 172.746094 283.613281 171.640625 284.070312 C 170.539062 284.527344 169.425781 284.957031 168.300781 285.359375 C 167.175781 285.761719 166.042969 286.136719 164.902344 286.484375 C 163.757812 286.828125 162.609375 287.148438 161.449219 287.4375 C 160.292969 287.730469 159.128906 287.988281 157.957031 288.222656 C 156.785156 288.457031 155.609375 288.660156 154.429688 288.835938 C 153.25 289.011719 152.0625 289.15625 150.875 289.273438 C 149.6875 289.390625 148.496094 289.476562 147.304688 289.535156 C 146.113281 289.59375 144.917969 289.625 143.726562 289.625 Z M 143.726562 289.625 " fill-opacity="1" fill-rule="nonzero"/></g><g clip-path="url(#d7bb172097)"><path fill="#276d5a" d="M 318.804688 114.546875 L 260.445312 114.546875 C 259.488281 114.546875 258.539062 114.640625 257.597656 114.828125 C 256.660156 115.015625 255.746094 115.289062 254.859375 115.65625 C 253.976562 116.023438 253.136719 116.472656 252.339844 117.003906 C 251.542969 117.539062 250.804688 118.140625 250.128906 118.820312 C 249.449219 119.496094 248.847656 120.234375 248.3125 121.03125 C 247.78125 121.828125 247.332031 122.667969 246.964844 123.554688 C 246.597656 124.4375 246.320312 125.351562 246.136719 126.289062 C 245.949219 127.230469 245.855469 128.179688 245.855469 129.136719 C 245.855469 130.09375 245.949219 131.042969 246.136719 131.984375 C 246.320312 132.921875 246.597656 133.835938 246.964844 134.71875 C 247.332031 135.605469 247.78125 136.445312 248.3125 137.242188 C 248.847656 138.039062 249.449219 138.777344 250.128906 139.453125 C 250.804688 140.128906 251.542969 140.734375 252.339844 141.265625 C 253.136719 141.800781 253.976562 142.25 254.859375 142.617188 C 255.746094 142.980469 256.660156 143.257812 257.597656 143.445312 C 258.539062 143.632812 259.488281 143.726562 260.445312 143.726562 L 318.804688 143.726562 C 319.761719 143.726562 320.710938 143.632812 321.648438 143.445312 C 322.589844 143.257812 323.503906 142.980469 324.386719 142.617188 C 325.273438 142.25 326.113281 141.800781 326.910156 141.265625 C 327.707031 140.734375 328.441406 140.128906 329.121094 139.453125 C 329.796875 138.777344 330.402344 138.039062 330.933594 137.242188 C 331.46875 136.445312 331.917969 135.605469 332.28125 134.71875 C 332.648438 133.835938 332.925781 132.921875 333.113281 131.984375 C 333.300781 131.042969 333.394531 130.09375 333.394531 129.136719 C 333.394531 128.179688 333.300781 127.230469 333.113281 126.289062 C 332.925781 125.351562 332.648438 124.4375 332.28125 123.554688 C 331.917969 122.667969 331.46875 121.828125 330.933594 121.03125 C 330.402344 120.234375 329.796875 119.496094 329.121094 118.820312 C 328.441406 118.140625 327.707031 117.539062 326.910156 117.003906 C 326.113281 116.472656 325.273438 116.023438 324.386719 115.65625 C 323.503906 115.289062 322.589844 115.015625 321.648438 114.828125 C 320.710938 114.640625 319.761719 114.546875 318.804688 114.546875 Z M 318.804688 114.546875 " fill-opacity="1" fill-rule="nonzero"/></g><g clip-path="url(#0f8ffe97ec)"><path fill="#276d5a" d="M 56.1875 85.367188 L 318.804688 85.367188 C 319.761719 85.367188 320.710938 85.273438 321.648438 85.085938 C 322.589844 84.898438 323.503906 84.621094 324.386719 84.257812 C 325.273438 83.890625 326.113281 83.441406 326.910156 82.90625 C 327.707031 82.375 328.441406 81.769531 329.121094 81.09375 C 329.796875 80.417969 330.402344 79.679688 330.933594 78.882812 C 331.46875 78.085938 331.917969 77.246094 332.28125 76.359375 C 332.648438 75.476562 332.925781 74.5625 333.113281 73.625 C 333.300781 72.683594 333.394531 71.734375 333.394531 70.777344 C 333.394531 69.820312 333.300781 68.871094 333.113281 67.929688 C 332.925781 66.992188 332.648438 66.078125 332.28125 65.195312 C 331.917969 64.308594 331.46875 63.46875 330.933594 62.671875 C 330.402344 61.875 329.796875 61.136719 329.121094 60.460938 C 328.441406 59.78125 327.707031 59.179688 326.910156 58.644531 C 326.113281 58.113281 325.273438 57.664062 324.386719 57.296875 C 323.503906 56.929688 322.589844 56.65625 321.648438 56.46875 C 320.710938 56.28125 319.761719 56.1875 318.804688 56.1875 L 56.1875 56.1875 C 55.230469 56.1875 54.28125 56.28125 53.339844 56.46875 C 52.402344 56.65625 51.488281 56.929688 50.601562 57.296875 C 49.71875 57.664062 48.878906 58.113281 48.082031 58.644531 C 47.285156 59.179688 46.546875 59.78125 45.871094 60.460938 C 45.191406 61.136719 44.589844 61.875 44.054688 62.671875 C 43.523438 63.46875 43.074219 64.308594 42.707031 65.195312 C 42.339844 66.078125 42.0625 66.992188 41.878906 67.929688 C 41.691406 68.871094 41.597656 69.820312 41.597656 70.777344 C 41.597656 71.734375 41.691406 72.683594 41.878906 73.625 C 42.0625 74.5625 42.339844 75.476562 42.707031 76.359375 C 43.074219 77.246094 43.523438 78.085938 44.054688 78.882812 C 44.589844 79.679688 45.191406 80.417969 45.871094 81.09375 C 46.546875 81.769531 47.285156 82.375 48.082031 82.90625 C 48.878906 83.441406 49.71875 83.890625 50.601562 84.257812 C 51.488281 84.621094 52.402344 84.898438 53.339844 85.085938 C 54.28125 85.273438 55.230469 85.367188 56.1875 85.367188 Z M 56.1875 85.367188 " fill-opacity="1" fill-rule="nonzero"/></g><g clip-path="url(#ba2b3243d9)"><path fill="#276d5a" d="M 318.804688 172.90625 L 289.625 172.90625 C 288.667969 172.90625 287.71875 173 286.777344 173.1875 C 285.839844 173.375 284.925781 173.648438 284.039062 174.015625 C 283.15625 174.382812 282.316406 174.832031 281.519531 175.363281 C 280.722656 175.898438 279.984375 176.5 279.308594 177.179688 C 278.628906 177.855469 278.023438 178.59375 277.492188 179.390625 C 276.960938 180.1875 276.511719 181.027344 276.144531 181.914062 C 275.777344 182.796875 275.5 183.710938 275.316406 184.648438 C 275.128906 185.589844 275.035156 186.539062 275.035156 187.496094 C 275.035156 188.453125 275.128906 189.402344 275.316406 190.34375 C 275.5 191.28125 275.777344 192.195312 276.144531 193.078125 C 276.511719 193.964844 276.960938 194.804688 277.492188 195.601562 C 278.023438 196.398438 278.628906 197.136719 279.308594 197.8125 C 279.984375 198.488281 280.722656 199.09375 281.519531 199.625 C 282.316406 200.160156 283.15625 200.609375 284.039062 200.976562 C 284.925781 201.339844 285.839844 201.617188 286.777344 201.804688 C 287.71875 201.992188 288.667969 202.085938 289.625 202.085938 L 318.804688 202.085938 C 319.761719 202.085938 320.710938 201.992188 321.648438 201.804688 C 322.589844 201.617188 323.503906 201.339844 324.386719 200.976562 C 325.273438 200.609375 326.113281 200.160156 326.910156 199.625 C 327.707031 199.09375 328.441406 198.488281 329.121094 197.8125 C 329.796875 197.136719 330.402344 196.398438 330.933594 195.601562 C 331.46875 194.804688 331.917969 193.964844 332.28125 193.078125 C 332.648438 192.195312 332.925781 191.28125 333.113281 190.34375 C 333.300781 189.402344 333.394531 188.453125 333.394531 187.496094 C 333.394531 186.539062 333.300781 185.589844 333.113281 184.648438 C 332.925781 183.710938 332.648438 182.796875 332.28125 181.914062 C 331.917969 181.027344 331.46875 180.1875 330.933594 179.390625 C 330.402344 178.59375 329.796875 177.855469 329.121094 177.179688 C 328.441406 176.5 327.707031 175.898438 326.910156 175.363281 C 326.113281 174.832031 325.273438 174.382812 324.386719 174.015625 C 323.503906 173.648438 322.589844 173.375 321.648438 173.1875 C 320.710938 173 319.761719 172.90625 318.804688 172.90625 Z M 318.804688 172.90625 " fill-opacity="1" fill-rule="nonzero"/></g><g clip-path="url(#8313addc48)"><path fill="#276d5a" d="M 318.804688 231.265625 L 289.625 231.265625 C 288.667969 231.265625 287.71875 231.359375 286.777344 231.546875 C 285.839844 231.734375 284.925781 232.007812 284.039062 232.375 C 283.15625 232.742188 282.316406 233.191406 281.519531 233.722656 C 280.722656 234.257812 279.984375 234.859375 279.308594 235.539062 C 278.628906 236.214844 278.023438 236.953125 277.492188 237.75 C 276.960938 238.546875 276.511719 239.386719 276.144531 240.273438 C 275.777344 241.15625 275.5 242.070312 275.316406 243.007812 C 275.128906 243.949219 275.035156 244.898438 275.035156 245.855469 C 275.035156 246.8125 275.128906 247.761719 275.316406 248.703125 C 275.5 249.640625 275.777344 250.554688 276.144531 251.4375 C 276.511719 252.324219 276.960938 253.164062 277.492188 253.960938 C 278.023438 254.757812 278.628906 255.496094 279.308594 256.171875 C 279.984375 256.847656 280.722656 257.453125 281.519531 257.984375 C 282.316406 258.519531 283.15625 258.96875 284.039062 259.335938 C 284.925781 259.699219 285.839844 259.976562 286.777344 260.164062 C 287.71875 260.351562 288.667969 260.445312 289.625 260.445312 L 318.804688 260.445312 C 319.761719 260.445312 320.710938 260.351562 321.648438 260.164062 C 322.589844 259.976562 323.503906 259.699219 324.386719 259.335938 C 325.273438 258.96875 326.113281 258.519531 326.910156 257.984375 C 327.707031 257.453125 328.441406 256.847656 329.121094 256.171875 C 329.796875 255.496094 330.402344 254.757812 330.933594 253.960938 C 331.46875 253.164062 331.917969 252.324219 332.28125 251.4375 C 332.648438 250.554688 332.925781 249.640625 333.113281 248.703125 C 333.300781 247.761719 333.394531 246.8125 333.394531 245.855469 C 333.394531 244.898438 333.300781 243.949219 333.113281 243.007812 C 332.925781 242.070312 332.648438 241.15625 332.28125 240.273438 C 331.917969 239.386719 331.46875 238.546875 330.933594 237.75 C 330.402344 236.953125 329.796875 236.214844 329.121094 235.539062 C 328.441406 234.859375 327.707031 234.257812 326.910156 233.722656 C 326.113281 233.191406 325.273438 232.742188 324.386719 232.375 C 323.503906 232.007812 322.589844 231.734375 321.648438 231.546875 C 320.710938 231.359375 319.761719 231.265625 318.804688 231.265625 Z M 318.804688 231.265625 " fill-opacity="1" fill-rule="nonzero"/></g><g clip-path="url(#6ecb4e1fd0)"><path fill="#276d5a" d="M 318.804688 289.625 L 260.445312 289.625 C 259.488281 289.625 258.539062 289.71875 257.597656 289.90625 C 256.660156 290.09375 255.746094 290.367188 254.859375 290.734375 C 253.976562 291.101562 253.136719 291.550781 252.339844 292.082031 C 251.542969 292.617188 250.804688 293.21875 250.128906 293.898438 C 249.449219 294.574219 248.847656 295.3125 248.3125 296.109375 C 247.78125 296.90625 247.332031 297.746094 246.964844 298.632812 C 246.597656 299.515625 246.320312 300.429688 246.136719 301.367188 C 245.949219 302.308594 245.855469 303.257812 245.855469 304.214844 C 245.855469 305.171875 245.949219 306.121094 246.136719 307.0625 C 246.320312 308 246.597656 308.914062 246.964844 309.796875 C 247.332031 310.683594 247.78125 311.523438 248.3125 312.320312 C 248.847656 313.117188 249.449219 313.855469 250.128906 314.53125 C 250.804688 315.207031 251.542969 315.8125 252.339844 316.34375 C 253.136719 316.878906 253.976562 317.328125 254.859375 317.695312 C 255.746094 318.058594 256.660156 318.335938 257.597656 318.523438 C 258.539062 318.710938 259.488281 318.804688 260.445312 318.804688 L 318.804688 318.804688 C 319.761719 318.804688 320.710938 318.710938 321.648438 318.523438 C 322.589844 318.335938 323.503906 318.058594 324.386719 317.695312 C 325.273438 317.328125 326.113281 316.878906 326.910156 316.34375 C 327.707031 315.8125 328.441406 315.207031 329.121094 314.53125 C 329.796875 313.855469 330.402344 313.117188 330.933594 312.320312 C 331.46875 311.523438 331.917969 310.683594 332.28125 309.796875 C 332.648438 308.914062 332.925781 308 333.113281 307.0625 C 333.300781 306.121094 333.394531 305.171875 333.394531 304.214844 C 333.394531 303.257812 333.300781 302.308594 333.113281 301.367188 C 332.925781 300.429688 332.648438 299.515625 332.28125 298.632812 C 331.917969 297.746094 331.46875 296.90625 330.933594 296.109375 C 330.402344 295.3125 329.796875 294.574219 329.121094 293.898438 C 328.441406 293.21875 327.707031 292.617188 326.910156 292.082031 C 326.113281 291.550781 325.273438 291.101562 324.386719 290.734375 C 323.503906 290.367188 322.589844 290.09375 321.648438 289.90625 C 320.710938 289.71875 319.761719 289.625 318.804688 289.625 Z M 318.804688 289.625 " fill-opacity="1" fill-rule="nonzero"/></g><path fill="#276d5a" d="M 143.726562 172.90625 C 142.769531 172.90625 141.820312 173 140.878906 173.1875 C 139.941406 173.375 139.027344 173.648438 138.140625 174.015625 C 137.257812 174.382812 136.417969 174.832031 135.621094 175.363281 C 134.824219 175.898438 134.085938 176.5 133.410156 177.179688 C 132.730469 177.855469 132.128906 178.59375 131.59375 179.390625 C 131.0625 180.1875 130.613281 181.027344 130.246094 181.914062 C 129.878906 182.796875 129.601562 183.710938 129.417969 184.648438 C 129.230469 185.589844 129.136719 186.539062 129.136719 187.496094 L 129.136719 210.695312 L 118.777344 221.050781 C 118.394531 221.378906 118.035156 221.722656 117.6875 222.085938 C 117.34375 222.449219 117.015625 222.832031 116.710938 223.226562 C 116.40625 223.625 116.121094 224.035156 115.855469 224.464844 C 115.59375 224.890625 115.351562 225.328125 115.132812 225.78125 C 114.914062 226.230469 114.722656 226.691406 114.550781 227.164062 C 114.378906 227.636719 114.234375 228.113281 114.113281 228.601562 C 113.992188 229.085938 113.894531 229.578125 113.824219 230.074219 C 113.753906 230.570312 113.707031 231.070312 113.6875 231.570312 C 113.667969 232.070312 113.675781 232.574219 113.707031 233.074219 C 113.738281 233.574219 113.796875 234.070312 113.882812 234.566406 C 113.964844 235.058594 114.074219 235.546875 114.207031 236.03125 C 114.339844 236.515625 114.5 236.988281 114.683594 237.457031 C 114.867188 237.921875 115.070312 238.378906 115.300781 238.824219 C 115.53125 239.269531 115.785156 239.703125 116.058594 240.121094 C 116.332031 240.542969 116.628906 240.945312 116.945312 241.335938 C 117.261719 241.722656 117.597656 242.097656 117.949219 242.449219 C 118.304688 242.804688 118.675781 243.140625 119.066406 243.457031 C 119.457031 243.773438 119.859375 244.066406 120.277344 244.34375 C 120.699219 244.617188 121.132812 244.871094 121.578125 245.097656 C 122.023438 245.328125 122.476562 245.535156 122.945312 245.71875 C 123.410156 245.902344 123.886719 246.058594 124.371094 246.195312 C 124.851562 246.328125 125.34375 246.4375 125.835938 246.519531 C 126.332031 246.605469 126.828125 246.660156 127.328125 246.695312 C 127.828125 246.726562 128.328125 246.730469 128.832031 246.714844 C 129.332031 246.695312 129.828125 246.648438 130.328125 246.578125 C 130.824219 246.507812 131.3125 246.410156 131.800781 246.289062 C 132.285156 246.167969 132.765625 246.023438 133.238281 245.851562 C 133.707031 245.679688 134.171875 245.484375 134.621094 245.265625 C 135.074219 245.050781 135.511719 244.808594 135.9375 244.542969 C 136.363281 244.28125 136.777344 243.996094 137.171875 243.691406 C 137.570312 243.382812 137.949219 243.058594 138.3125 242.714844 C 138.679688 242.367188 139.023438 242.003906 139.347656 241.625 L 153.9375 227.035156 C 155.332031 225.667969 156.40625 224.089844 157.164062 222.292969 C 157.925781 220.496094 158.308594 218.625 158.316406 216.675781 L 158.316406 187.496094 C 158.316406 186.539062 158.222656 185.589844 158.035156 184.648438 C 157.847656 183.710938 157.570312 182.796875 157.203125 181.914062 C 156.839844 181.027344 156.390625 180.1875 155.855469 179.390625 C 155.324219 178.59375 154.71875 177.855469 154.042969 177.179688 C 153.363281 176.5 152.628906 175.898438 151.832031 175.363281 C 151.035156 174.832031 150.195312 174.382812 149.308594 174.015625 C 148.425781 173.648438 147.511719 173.375 146.570312 173.1875 C 145.632812 173 144.683594 172.90625 143.726562 172.90625 Z M 143.726562 172.90625 " fill-opacity="1" fill-rule="nonzero"/></svg>